<?xml version="1.0" encoding="UTF-8"?>
<svg width="20px" height="20px" viewBox="0 0 20 20" version="1.1" xmlns="http://www.w3.org/2000/svg" xmlns:xlink="http://www.w3.org/1999/xlink">
    <title>1.1</title>
    <g id="页面-1" stroke="none" stroke-width="1" fill="none" fill-rule="evenodd">
        <g id="4.系统概览" transform="translate(-1143.000000, -20.000000)">
            <g id="编组-4">
                <g id="1.1" transform="translate(1143.000000, 20.000000)">
                    <g id="搜索-(1)">
                        <path d="M19.3775422,16.5003744 L14.1887629,11.2142175 C14.7425638,10.150775 15.0600521,8.94059199 15.0600521,7.65571424 C15.0600521,3.4414675 11.6845959,0.0127694157 7.53596135,0.0127694157 C3.38791811,0.0127694157 0.0124619314,3.44144383 0.0124619314,7.65571424 C0.0124619314,11.8699373 3.38791811,15.2979731 7.53596135,15.2979731 C8.96878585,15.2979731 10.3043274,14.8818301 11.4450428,14.1728211 L16.5357823,19.3590223 C16.9149564,19.7453158 17.4194181,19.9576448 17.9563311,19.9576448 L17.9569934,19.9576448 C18.4945923,19.9576448 18.9983918,19.7446772 19.3775659,19.3590223 C20.1514301,18.5708718 20.1514301,17.2885958 19.3775422,16.5003744 Z" id="形状" fill="#3C3588" fill-rule="nonzero"></path>
                        <path d="M3.27944749,7.32200032 L4.6091232,7.32200032 C4.6091232,5.49044106 6.06865142,4.00044832 7.86314714,4.00044834 L7.86314714,2.67077263 C5.33558779,2.67077263 3.27944749,4.75747201 3.27944749,7.32200032 L3.27944749,7.32200032 Z" id="路径" fill="#FFFFFF" fill-rule="nonzero"></path>
                    </g>
                </g>
            </g>
        </g>
    </g>
</svg>