<?xml version="1.0" encoding="UTF-8"?>
<svg width="19px" height="20px" viewBox="0 0 19 20" version="1.1" xmlns="http://www.w3.org/2000/svg" xmlns:xlink="http://www.w3.org/1999/xlink">
    <title>1.2</title>
    <g id="页面-1" stroke="none" stroke-width="1" fill="none" fill-rule="evenodd">
        <g id="4.系统概览" transform="translate(-1183.000000, -20.000000)" fill="#3C3588">
            <g id="编组-4">
                <g id="1.2" transform="translate(1183.000000, 20.000000)">
                    <g id="消息" transform="translate(0.833333, 0.000000)">
                        <path d="M15.4624345,8.16873035 C15.4624345,5.21825487 13.2654613,2.74732024 10.3082897,2.09533367 L10.3082897,1.44098482 C10.3082897,0.642537494 9.61650917,0 8.76255302,0 C7.90606287,0 7.21681637,0.644899764 7.21681637,1.44098482 L7.21681637,2.09533367 C4.25711078,2.74968251 2.06267153,5.21825487 2.06267153,8.16873035 L2.06267153,13.455491 L-7.57320133e-13,15.378379 L-7.57320133e-13,16.339823 L17.52764,16.339823 L17.52764,15.378379 L15.4649685,13.455491 L15.4649685,8.16873035 L15.4624345,8.16873035 Z" id="形状" fill-rule="nonzero"></path>
                        <path d="M7.80403651,17.4746744 C8.12579292,17.5377839 8.44572075,17.5693387 8.76382002,17.5693387 C9.07637248,17.5693387 9.38880224,17.5388748 9.70110929,17.477947 C10.216217,17.3774605 10.7152583,17.7135722 10.8157502,18.2286789 C10.827445,18.2886251 10.8333333,18.3495592 10.8333333,18.4106355 C10.8333333,19.2183878 10.2184776,19.8933838 9.41423141,19.9685629 C9.18997148,19.989521 8.96618933,20 8.74288495,20 C8.52524448,20 8.30761905,19.9900458 8.09000866,19.9701374 C7.28377129,19.8963783 6.66666667,19.2202398 6.66666667,18.4106355 C6.66666667,17.883872 7.09369286,17.4568458 7.62045637,17.4568458 C7.68208184,17.4568458 7.74356227,17.4628183 7.80403651,17.4746744 Z" id="矩形"></path>
                    </g>
                </g>
            </g>
        </g>
    </g>
</svg>