<?xml version="1.0" encoding="UTF-8"?>
<svg width="20px" height="20px" viewBox="0 0 20 20" version="1.1" xmlns="http://www.w3.org/2000/svg" xmlns:xlink="http://www.w3.org/1999/xlink">
    <title>1.3</title>
    <g id="页面-1" stroke="none" stroke-width="1" fill="none" fill-rule="evenodd">
        <g id="4.系统概览" transform="translate(-1263.000000, -20.000000)" fill="#3C3588">
            <g id="编组-4">
                <g id="1.3" transform="translate(1263.000000, 20.000000)">
                    <g id="个人中心-(1)" transform="translate(0.833333, 0.000000)">
                        <path d="M18.303887,18.7460986 C18.303887,19.4355927 17.7577717,19.9945381 17.0841044,19.9945381 L1.22692982,19.9945381 C0.553262455,19.9945381 0.00714715686,19.4355927 0.00714715686,18.7460986 L0.00714715686,15.625 C0.00714715686,13.5565178 1.64549305,11.8796816 3.66649513,11.8796816 L14.644539,11.8796816 C16.6655411,11.8796816 18.303887,13.5565178 18.303887,15.625 L18.303887,18.7460986 L18.303887,18.7460986 Z M9.15551709,10.0070225 C7.41229457,10.0071407 5.8014411,9.05536175 4.92979648,7.51023914 C4.05815185,5.96511652 4.05815185,4.06141282 4.92979648,2.5162902 C5.8014411,0.971167586 7.41229457,0.0193885935 9.15551709,0.0195068689 C11.8500602,0.01968969 14.0343243,2.25541767 14.0343243,5.01326467 C14.0343243,7.77111168 11.8500602,10.0068397 9.15551709,10.0070225 L9.15551709,10.0070225 Z" id="形状" fill-rule="nonzero"></path>
                    </g>
                </g>
            </g>
        </g>
    </g>
</svg>