<?xml version="1.0" encoding="UTF-8"?>
<svg width="14px" height="14px" viewBox="0 0 14 14" version="1.1" xmlns="http://www.w3.org/2000/svg" xmlns:xlink="http://www.w3.org/1999/xlink">
    <title>11.icon1</title>
    <g id="页面-1" stroke="none" stroke-width="1" fill="none" fill-rule="evenodd">
        <g id="11.提示" transform="translate(-939.000000, -263.000000)" fill="#F5222D">
            <g id="编组备份-4" transform="translate(313.000000, 250.000000)">
                <path d="M633,13 C629.133594,13 626,16.1335937 626,20 C626,23.8664062 629.133594,27 633,27 C636.866406,27 640,23.8664062 640,20 C640,16.1335937 636.866406,13 633,13 L633,13 Z M636.294922,22.6154297 C636.467188,22.7849609 636.469922,23.0611328 636.301758,23.2347656 L636.301758,23.2347656 C636.132227,23.4070312 635.856055,23.4097656 635.682422,23.2416016 L633,20.6125 L630.317578,23.2402344 C630.145313,23.4097656 629.867773,23.4070312 629.698242,23.2333984 L629.698242,23.2333984 C629.528711,23.0611328 629.531445,22.7835937 629.705078,22.6140625 L632.375195,20 L629.705078,17.3845703 C629.532812,17.2150391 629.530078,16.9388672 629.698242,16.7652344 L629.698242,16.7652344 C629.867773,16.5929688 630.143945,16.5902344 630.317578,16.7583984 L633,19.3875 L635.682422,16.7597656 C635.854687,16.5902344 636.132227,16.5929688 636.301758,16.7666016 L636.301758,16.7666016 C636.471289,16.9388672 636.468555,17.2164062 636.294922,17.3859375 L633.624805,20 L636.294922,22.6154297 L636.294922,22.6154297 Z" id="11.icon1"></path>
            </g>
        </g>
    </g>
</svg>