<?xml version="1.0" encoding="UTF-8"?>
<svg width="26px" height="26px" viewBox="0 0 26 26" version="1.1" xmlns="http://www.w3.org/2000/svg" xmlns:xlink="http://www.w3.org/1999/xlink">
    <title>2.icon_en</title>
    <g id="1.0" stroke="none" stroke-width="1" fill="none" fill-rule="evenodd">
        <g id="2.任务概览" transform="translate(-1184.000000, -17.000000)" fill="#FFFFFF" fill-rule="nonzero">
            <g id="2.icon_en" transform="translate(1184.000000, 17.000000)">
                <path d="M13,-6.17214613e-15 C20.1798085,-6.17214613e-15 25.9999312,5.82016858 25.9999312,12.9999771 C25.9999312,20.1794645 20.1798085,26 13,26 C5.8205584,26 2.29277344e-05,20.1794645 2.29277344e-05,12.9999771 C2.29277344e-05,5.82016858 5.8205584,-6.17214613e-15 13,-6.17214613e-15 Z M12.695,8 L6,8 L6,17.282 L12.916,17.282 L12.916,15.982 L7.521,15.982 L7.521,13.174 L12.383,13.174 L12.383,11.874 L7.521,11.874 L7.521,9.3 L12.695,9.3 L12.695,8 Z M17.687,10.379 C17.284,10.379 16.92,10.457 16.582,10.626 C16.257,10.782 15.958,11.029 15.698,11.341 L15.698,10.561 L14.216,10.561 L14.216,17.282 L15.698,17.282 L15.698,13.239 C15.75,12.706 15.932,12.29 16.244,12.004 C16.517,11.744 16.842,11.614 17.206,11.614 C18.22,11.614 18.727,12.16 18.727,13.265 L18.727,17.282 L20.209,17.282 L20.209,13.135 C20.209,11.289 19.364,10.379 17.687,10.379 Z" id="形状"></path>
            </g>
        </g>
    </g>
</svg>