<?xml version="1.0" encoding="UTF-8"?>
<svg width="20px" height="20px" viewBox="0 0 20 20" version="1.1" xmlns="http://www.w3.org/2000/svg" xmlns:xlink="http://www.w3.org/1999/xlink">
    <title>2.icon_en</title>
    <g id="页面-1" stroke="none" stroke-width="1" fill="none" fill-rule="evenodd">
        <g id="4.系统概览" transform="translate(-1223.000000, -20.000000)" fill="#3C3588" fill-rule="nonzero">
            <g id="编组-4">
                <g id="2.icon_en" transform="translate(1223.000000, 20.000000)">
                    <path d="M9.99998236,0 C15.522912,0 19.9999295,4.47705275 19.9999295,9.99998236 C19.9999295,15.522665 15.522912,20 9.99998236,20 C4.47733498,20 0,15.522665 0,9.99998236 C0,4.47705275 4.47733498,0 9.99998236,0 Z M9.76536698,6.15384615 L4.61536698,6.15384615 L4.61536698,13.2938462 L9.93536698,13.2938462 L9.93536698,12.2938462 L5.78536698,12.2938462 L5.78536698,10.1338462 L9.52536698,10.1338462 L9.52536698,9.13384615 L5.78536698,9.13384615 L5.78536698,7.15384615 L9.76536698,7.15384615 L9.76536698,6.15384615 Z M13.605367,7.98384615 C13.295367,7.98384615 13.015367,8.04384615 12.755367,8.17384615 C12.505367,8.29384615 12.275367,8.48384615 12.075367,8.72384615 L12.075367,8.12384615 L10.935367,8.12384615 L10.935367,13.2938462 L12.075367,13.2938462 L12.075367,10.1838462 C12.115367,9.77384615 12.255367,9.45384615 12.495367,9.23384615 C12.705367,9.03384615 12.955367,8.93384615 13.235367,8.93384615 C14.015367,8.93384615 14.405367,9.35384615 14.405367,10.2038462 L14.405367,13.2938462 L15.545367,13.2938462 L15.545367,10.1038462 C15.545367,8.68384615 14.895367,7.98384615 13.605367,7.98384615 Z" id="形状"></path>
                </g>
            </g>
        </g>
    </g>
</svg>