<?xml version="1.0" encoding="UTF-8"?>
<svg width="9px" height="6px" viewBox="0 0 9 6" version="1.1" xmlns="http://www.w3.org/2000/svg" xmlns:xlink="http://www.w3.org/1999/xlink">
    <title>2.icon1</title>
    <g id="页面-1" stroke="none" stroke-width="1" fill="none" fill-rule="evenodd">
        <g id="2.侧边栏" transform="translate(-414.000000, -230.000000)" fill="#1E255F" fill-rule="nonzero">
            <g id="编组备份" transform="translate(239.000000, 0.000000)">
                <path d="M184,235.333327 C184,235.513788 183.944496,235.670222 183.833503,235.802686 C183.722495,235.935132 183.590493,236.000894 183.437497,236 L175.562496,236 C175.410251,236 175.278249,235.934229 175.166505,235.802686 C175.05476,235.671124 174.999257,235.514691 175,235.333327 C175.000758,235.152022 175.056262,234.995549 175.166505,234.864007 L179.103998,230.197324 C179.215005,230.065762 179.346993,230 179.5,230 C179.653,230 179.784988,230.065781 179.895995,230.197324 L183.833489,234.864007 C183.944496,234.995549 184,235.152022 184,235.333327 Z" id="2.icon1" transform="translate(179.500000, 233.000000) scale(1, -1) translate(-179.500000, -233.000000) "></path>
            </g>
        </g>
    </g>
</svg>