<?xml version="1.0" encoding="UTF-8"?>
<svg width="20px" height="20px" viewBox="0 0 20 20" version="1.1" xmlns="http://www.w3.org/2000/svg" xmlns:xlink="http://www.w3.org/1999/xlink">
    <title>2.icon_中</title>
    <g id="页面-1" stroke="none" stroke-width="1" fill="none" fill-rule="evenodd">
        <g id="4.系统概览" transform="translate(-1223.000000, -1.000000)" fill="#3C3588" fill-rule="nonzero">
            <g id="编组-4">
                <g id="2.icon_中" transform="translate(1223.000000, 1.000000)">
                    <path d="M9.99998236,0 C15.522912,0 19.9999295,4.47705275 19.9999295,9.99998236 C19.9999295,15.522665 15.522912,20 9.99998236,20 C4.47733498,20 0,15.522665 0,9.99998236 C0,4.47705275 4.47733498,0 9.99998236,0 Z M10.588,5.112 L9.412,5.112 L9.412,7.188 L5.152,7.188 L5.152,12.984 L6.292,12.984 L6.292,12.3 L9.412,12.3 L9.412,16.32 L10.588,16.32 L10.588,12.3 L13.72,12.3 L13.72,12.984 L14.86,12.984 L14.86,7.188 L10.588,7.188 L10.588,5.112 Z M9.412,8.304 L9.412,11.184 L6.292,11.184 L6.292,8.304 L9.412,8.304 Z M13.72,8.304 L13.72,11.184 L10.588,11.184 L10.588,8.304 L13.72,8.304 Z" id="形状"></path>
                </g>
            </g>
        </g>
    </g>
</svg>