<?xml version="1.0" encoding="UTF-8"?>
<svg width="50px" height="48px" viewBox="0 0 50 48" version="1.1" xmlns="http://www.w3.org/2000/svg" xmlns:xlink="http://www.w3.org/1999/xlink">
    <title>2.icon_Memory</title>
    <g id="1.0" stroke="none" stroke-width="1" fill="none" fill-rule="evenodd">
        <g id="2.任务概览" transform="translate(-827.000000, -119.000000)" fill="#FFA505" fill-rule="nonzero">
            <g id="编组" transform="translate(376.000000, 90.000000)">
                <g id="2.icon_Memory" transform="translate(451.000000, 29.000000)">
                    <path d="M37.4446419,3.78149952 L37.4446419,15.0090444 C37.4446419,17.0759784 35.7690609,18.7515594 33.702127,18.7515594 L16.2370572,18.7515594 C14.1701232,18.7515594 12.4945422,17.0759784 12.4945422,15.0090444 L12.4945422,3.78149952 L37.4446419,3.78149952 M41.1871569,0.0389845504 L8.75202722,0.0389845504 L8.75202722,15.0090444 C8.75202722,19.1429123 12.1031893,22.4940744 16.2370572,22.4940744 L33.702127,22.4940744 C37.8359949,22.4940744 41.1871569,19.1429123 41.1871569,15.0090444 L41.1871569,0.0389845504 Z" id="形状"></path>
                    <path d="M31.8308695,6.90026198 L31.8308695,6.90026198 C33.0783745,6.90026198 33.702127,7.52401447 33.702127,8.77151946 L33.702127,12.5140344 C33.702127,13.7615394 33.0783745,14.3852919 31.8308695,14.3852919 L31.8308695,14.3852919 C30.5833645,14.3852919 29.959612,13.7615394 29.959612,12.5140344 L29.959612,8.77151946 C29.959612,7.52401447 30.5833645,6.90026198 31.8308695,6.90026198 Z" id="路径"></path>
                    <path d="M39.9396519,3.78149952 C43.3845418,3.78149952 46.1771769,6.57413454 46.1771769,10.0190244 L46.1771769,37.4641343 C46.1771769,40.9090241 43.3845418,43.7016592 39.9396519,43.7016592 L9.99953219,43.7016592 C6.55464229,43.7016592 3.76200722,40.9090241 3.76200722,37.4641343 L3.76200722,10.0190244 C3.76200722,6.57413454 6.55464229,3.78149952 9.99953219,3.78149952 L39.9396519,3.78149952 M39.9396519,0.0389845504 L9.99953219,0.0389845504 C4.48770835,0.0389845504 0.019492246,4.50720059 0.019492246,10.0190244 L0.019492246,37.4641343 C0.019492246,42.9759581 4.48770835,47.4441741 9.99953219,47.4441741 L39.9396519,47.4441741 C45.4514758,47.4441741 49.9196919,42.9759581 49.9196919,37.4641343 L49.9196919,10.0190244 C49.9196919,4.50720059 45.4514758,0.0389845504 39.9396519,0.0389845504 Z" id="形状"></path>
                </g>
            </g>
        </g>
    </g>
</svg>