<?xml version="1.0" encoding="UTF-8"?>
<svg width="14px" height="14px" viewBox="0 0 14 14" version="1.1" xmlns="http://www.w3.org/2000/svg" xmlns:xlink="http://www.w3.org/1999/xlink">
    <title>23.icon1</title>
    <g id="页面-1" stroke="none" stroke-width="1" fill="none" fill-rule="evenodd">
        <g id="23.计算节点管理" transform="translate(-580.000000, -211.000000)" fill="#F32E25" fill-rule="nonzero">
            <g id="编组-7" transform="translate(313.000000, 156.000000)">
                <g id="编组" transform="translate(0.000000, 31.000000)">
                    <g id="关闭" transform="translate(267.000000, 24.000000)">
                        <path d="M7.00001408,0 C3.13399171,0 0,3.13399949 0,7.00001408 C0,10.8660287 3.13399171,14 7,14 C10.8660083,14 14,10.8660287 14,7.00001408 C14,3.13399949 10.8660505,0 7.00002816,0 L7.00001408,0 Z M10.0018987,9.09439218 C10.252484,9.34504738 10.252484,9.75129379 10.0018987,10.0018927 C9.75131341,10.2524634 9.3449817,10.2524634 9.0943964,10.0018927 L7.00001408,7.90750049 L4.90556137,10.0018786 C4.65496199,10.2524493 4.24872883,10.2524493 3.99814353,10.0018786 C3.74747375,9.75127972 3.74747375,9.3450333 3.99814353,9.0943781 L6.09251177,7.00001408 L3.99812945,4.9056219 C3.74747375,4.6550371 3.74747375,4.24872028 3.99812945,3.99813549 C4.24872883,3.74755069 4.65496199,3.74755069 4.90554729,3.99813549 L7.00001408,6.09251359 L9.0943964,3.99813549 C9.3449817,3.74755069 9.75131341,3.74755069 10.0018987,3.99813549 C10.252484,4.24872028 10.252484,4.6550371 10.0018987,4.9056219 L7.90750231,7.00001408 L10.0018987,9.09439218 Z" id="23.icon1"></path>
                    </g>
                </g>
            </g>
        </g>
    </g>
</svg>