<?xml version="1.0" encoding="UTF-8"?>
<svg width="12px" height="19px" viewBox="0 0 12 19" version="1.1" xmlns="http://www.w3.org/2000/svg" xmlns:xlink="http://www.w3.org/1999/xlink">
    <title>23.icon4</title>
    <g id="页面-1" stroke="none" stroke-width="1" fill="none" fill-rule="evenodd">
        <g id="23.计算节点管理" transform="translate(-581.000000, -469.000000)" fill="#4A90E2" fill-rule="nonzero">
            <g id="编组-7" transform="translate(313.000000, 156.000000)">
                <g id="编组备份-4" transform="translate(0.000000, 291.000000)">
                    <g id="关闭" transform="translate(264.000000, 21.000000)">
                        <g id="火箭_面">
                            <path d="M7.25405555,12.8983889 C8.15783333,13.8169444 8.26244443,14.8043333 7.26066667,15.8224445 C6.64,16.4528333 5.63511112,16.8316111 4.25222222,16.9937778 C4.18066667,17.0023333 4.10833333,17.0019445 4.03638888,16.9933889 C3.55027777,16.9342778 3.19522222,16.5022222 3.21855555,16.0087222 L3.22361112,15.9441667 L3.24344445,15.7808333 C3.413,14.4625 3.78011112,13.4972778 4.37627778,12.8913889 C5.37805557,11.8736667 6.3498889,11.9802222 7.25405555,12.8983889 L7.25405555,12.8983889 Z M15.5338889,3.24888888 L15.6902222,3.29672222 L15.8430555,3.34766667 C16.2242314,3.4813159 16.5226999,3.78293977 16.6523333,4.1655 C17.2617222,5.94583333 17.0680555,7.7495 16.0857222,9.53761112 C15.6808889,10.2741667 15.1628889,10.9714445 14.5325,11.6290555 L14.3578889,11.8075555 L14.1926111,11.9693333 L14.1879445,12.0195 C14.0732222,13.0905 13.2608333,14.5068333 11.764,16.3381111 L11.6341111,16.4963889 L11.3949445,16.7822222 C11.1242778,17.1034444 10.6202778,17.014 10.4623889,16.6344445 L10.4437222,16.5835 L9.60683333,13.9126111 L9.531,13.8601111 C9.06075383,13.525111 8.61284154,13.1598182 8.19011112,12.7665555 L7.98205555,12.5682222 L7.77827778,12.366 C7.17637448,11.7534999 6.63463259,11.084657 6.1605,10.3686667 L6.11422222,10.2967222 L3.38888888,9.4155 C3.00544443,9.29105555 2.88177777,8.817 3.12522222,8.51911112 L3.1575,8.48255555 L3.1925,8.44988888 C5.43405555,6.49144443 7.088,5.52038888 8.27255555,5.60127778 L8.34877778,5.60788888 L8.39311112,5.61333333 L8.49305555,5.51222222 C9.0305,4.97788888 9.59322222,4.52327777 10.1816111,4.14955555 L10.3783889,4.02783333 L10.5592222,3.92205555 C12.2011111,2.99105555 13.8678889,2.762 15.5338889,3.24927778 L15.5338889,3.24888888 Z M10.5098333,7.00983333 C9.82811112,7.69194445 9.83044445,8.79988888 10.5152778,9.48472222 C11.2001111,10.1695555 12.3080556,10.1718889 12.9901667,9.49016667 C13.6718889,8.80805555 13.6695555,7.70011112 12.9847222,7.01527778 C12.2998889,6.33044445 11.1919444,6.32811112 10.5098333,7.00983333 Z" id="23.icon4" transform="translate(9.999930, 10.000057) rotate(-45.000000) translate(-9.999930, -10.000057) "></path>
                        </g>
                    </g>
                </g>
            </g>
        </g>
    </g>
</svg>