<?xml version="1.0" encoding="UTF-8"?>
<svg width="12px" height="8px" viewBox="0 0 12 8" version="1.1" xmlns="http://www.w3.org/2000/svg" xmlns:xlink="http://www.w3.org/1999/xlink">
    <title>35.icon1</title>
    <g id="页面-1" stroke="none" stroke-width="1" fill="none" fill-rule="evenodd">
        <g id="35.数据详情2" transform="translate(-943.000000, -427.000000)" fill="#000000">
            <g id="编组备份-2" transform="translate(325.000000, 410.000000)">
                <g id="icon/16px/3备份" transform="translate(612.000000, 8.000000)">
                    <g id="下拉-(1)" transform="translate(6.000000, 9.000000)">
                        <path d="M12,0.625 C12,0.279822031 11.7761424,0 11.5,0 C11.3705,0 11.2535,0.063125 11.16475,0.1640625 L11.1635,0.1625 L6,6.0303125 L0.83625,0.1625 L0.835,0.1640625 C0.743696352,0.0588919195 0.624158055,0.000349376423 0.5,0 C0.223857625,0 0,0.279822031 0,0.625 C0,0.8084375 0.06425,0.9715625 0.16475,1.0859375 L0.16375,1.0875 L5.66375,7.3375 L5.66475,7.3359375 C5.7535,7.436875 5.8705,7.5 6,7.5 C6.1295,7.5 6.2465,7.436875 6.33525,7.335625 L6.3365,7.3371875 L11.8365,1.0871875 L11.83525,1.085625 C11.93575,0.9715625 12,0.808125 12,0.625 L12,0.625 Z" id="路径" fill-rule="nonzero"></path>
                    </g>
                </g>
            </g>
        </g>
    </g>
</svg>