<?xml version="1.0" encoding="UTF-8"?>
<svg width="20px" height="20px" viewBox="0 0 20 20" version="1.1" xmlns="http://www.w3.org/2000/svg" xmlns:xlink="http://www.w3.org/1999/xlink">
    <title>37.icon1</title>
    <g id="页面-1" stroke="none" stroke-width="1" fill="none" fill-rule="evenodd">
        <g id="37.添数据加" transform="translate(-990.000000, -421.000000)" fill="#3C3588">
            <g id="编组备份-5" transform="translate(325.000000, 411.000000)">
                <path d="M675,10 C669.485037,10 665,14.485037 665,20 C665,25.514963 669.485037,30 675,30 C680.514963,30 685,25.514963 685,20 C685,14.485037 680.514963,10 675,10 Z M675.137255,11.4666667 C679.931329,11.4666667 683.803922,15.3392593 683.803922,20.1333334 C683.803922,24.9274074 679.931329,28.8 675.137255,28.8 C670.343181,28.8 666.470588,24.9274074 666.470588,20.1333334 C666.470588,15.3392593 670.343181,11.4666667 675.137255,11.4666667 Z M674.852948,14.4117647 C672.992548,14.4117647 671.470676,15.8863005 671.470676,17.6888346 C671.464663,18.0541186 671.770119,18.3532787 672.14713,18.3532787 C672.524141,18.3532787 672.829597,18.0541186 672.823584,17.6888346 C672.823584,16.5953128 673.724321,15.7225926 674.852948,15.7225926 C675.981575,15.7225926 676.882311,16.5953128 676.882311,17.6888346 C676.890429,18.5866061 676.413604,19.0451045 675.747972,19.6550765 C675.415457,19.9600624 675.045662,20.2764089 674.733291,20.6926696 C674.420618,21.1092216 674.176493,21.6498653 674.176493,22.2767324 C674.17048,22.6420164 674.475937,22.9411765 674.852948,22.9411765 C675.229959,22.9411765 675.535415,22.6420164 675.529402,22.2767324 C675.529402,21.9525209 675.626812,21.7282237 675.825238,21.4643103 C676.023966,21.200397 676.331527,20.9216276 676.677872,20.6041159 C677.369659,19.9702578 678.24454,19.085012 678.23522,17.6888346 L678.23522,17.6821348 C678.231613,15.8830962 676.710943,14.4117647 674.852948,14.4117647 Z M675,23.5294118 C674.512941,23.5294118 674.117647,23.9247059 674.117647,24.4117647 C674.117647,24.8988235 674.512941,25.2941176 675,25.2941176 C675.487059,25.2941176 675.882353,24.8988235 675.882353,24.4117647 C675.882353,23.9247059 675.487059,23.5294118 675,23.5294118 Z" id="37.icon1"></path>
            </g>
        </g>
    </g>
</svg>