<?xml version="1.0" encoding="UTF-8"?>
<svg width="19px" height="19px" viewBox="0 0 19 19" version="1.1" xmlns="http://www.w3.org/2000/svg" xmlns:xlink="http://www.w3.org/1999/xlink">
    <title>4.Icons/down</title>
    <g id="页面-1" stroke="none" stroke-width="1" fill="none" fill-rule="evenodd">
        <g id="4.系统概览" transform="translate(-907.000000, -686.000000)">
            <g id="Element/Change/Positive" transform="translate(907.000000, 686.000000)">
                <g id="Change">
                    <g id="4.Icons/down">
                        <path d="M9.71428571,18.7142857 C4.74372297,18.7142857 0.714285714,14.6848485 0.714285714,9.71428571 C0.714285714,4.74372297 4.74372297,0.714285714 9.71428571,0.714285714 C14.6848485,0.714285714 18.7142857,4.74372297 18.7142857,9.71428571 C18.7142857,14.6848485 14.6848485,18.7142857 9.71428571,18.7142857 Z" id="Shape" fill="#F45564"></path>
                        <path d="M12.7142857,12.1124769 L6.54529695,5.98020104 C6.14003182,5.57734773 5.53575185,6.18524542 5.94101698,6.58809873 L12.10214,12.7125556 L8.00071221,12.7057397 C7.76401907,12.7053464 7.57182251,12.8969052 7.57142916,13.1335984 C7.57103582,13.3702915 7.76259465,13.5624881 7.99928779,13.5628814 L13.1270437,13.5714286 C13.1295854,13.5714286 13.1321244,13.5714286 13.1346605,13.5714286 L13.1421449,13.5714286 C13.3791163,13.5718218 13.5714286,13.3798288 13.5714286,13.1428571 L13.5714286,7.99145344 C13.5714286,7.75475997 13.3795506,7.56288201 13.1428571,7.56288201 C12.9061637,7.56288201 12.7142857,7.75475997 12.7142857,7.99145344 L12.7142857,12.1124769 Z" id="Path" fill="#FFFFFF"></path>
                    </g>
                </g>
            </g>
        </g>
    </g>
</svg>