<?xml version="1.0" encoding="UTF-8"?>
<svg width="9px" height="6px" viewBox="0 0 9 6" version="1.1" xmlns="http://www.w3.org/2000/svg" xmlns:xlink="http://www.w3.org/1999/xlink">
    <title>4.icon1</title>
    <g id="页面-1" stroke="none" stroke-width="1" fill="none" fill-rule="evenodd">
        <g id="4.系统概览" transform="translate(-187.000000, -211.000000)" fill="#A7AFFF" fill-rule="nonzero">
            <g id="编组">
                <path d="M196,216.333327 C196,216.513788 195.944496,216.670222 195.833503,216.802686 C195.722495,216.935132 195.590493,217.000894 195.437497,217 L187.562496,217 C187.410251,217 187.278249,216.934229 187.166505,216.802686 C187.05476,216.671124 186.999257,216.514691 187,216.333327 C187.000758,216.152022 187.056262,215.995549 187.166505,215.864007 L191.103998,211.197324 C191.215005,211.065762 191.346993,211 191.5,211 C191.653,211 191.784988,211.065781 191.895995,211.197324 L195.833489,215.864007 C195.944496,215.995549 196,216.152022 196,216.333327 Z" id="4.icon1"></path>
            </g>
        </g>
    </g>
</svg>