<?xml version="1.0" encoding="UTF-8"?>
<svg width="11px" height="11px" viewBox="0 0 11 11" version="1.1" xmlns="http://www.w3.org/2000/svg" xmlns:xlink="http://www.w3.org/1999/xlink">
    <title>4.Icons/up</title>
    <g id="页面-1" stroke="none" stroke-width="1" fill="none" fill-rule="evenodd">
        <g id="4.系统概览" transform="translate(-497.000000, -627.000000)">
            <g id="编组-14" transform="translate(293.000000, 542.000000)">
                <g id="chart" transform="translate(20.000000, 69.000000)">
                    <g id="month" transform="translate(5.000000, 1.000000)">
                        <g id="编组-12" transform="translate(146.000000, 9.000000)">
                            <g id="4.Icons/up" transform="translate(33.000000, 6.000000)">
                                <path d="M5.62406015,0.413533835 C8.50175437,0.413533835 10.8345865,2.74636593 10.8345865,5.62406015 C10.8345865,8.50175437 8.50175437,10.8345865 5.62406015,10.8345865 C2.74636593,10.8345865 0.413533835,8.50175437 0.413533835,5.62406015 C0.413533835,2.74636593 2.74636593,0.413533835 5.62406015,0.413533835 Z" id="Shape" fill="#45B854"></path>
                                <path d="M7.36411521,4.2346164 L3.8157195,7.78060552 C3.58261144,8.01355549 3.23503025,7.66203859 3.46813832,7.42908862 L7.01200964,3.88762082 L4.6528728,3.89156209 C4.51672716,3.89178955 4.4061759,3.78102063 4.40594965,3.6441528 C4.4057234,3.50728497 4.51590783,3.39614729 4.65205347,3.39591984 L7.60153315,3.39097744 C7.60299516,3.39097744 7.60445557,3.39097744 7.60591431,3.39097744 L7.61021937,3.39097744 C7.74652502,3.39075008 7.85714286,3.50177004 7.85714286,3.63879892 L7.85714286,6.61759862 C7.85714286,6.75446664 7.74677486,6.86542009 7.61062903,6.86542009 C7.47448321,6.86542009 7.36411521,6.75446664 7.36411521,6.61759862 L7.36411521,4.2346164 Z" id="Combined-Shape" fill="#FFFFFF"></path>
                            </g>
                        </g>
                    </g>
                </g>
            </g>
        </g>
    </g>
</svg>