<?xml version="1.0" encoding="UTF-8"?>
<svg width="20px" height="20px" viewBox="0 0 20 20" version="1.1" xmlns="http://www.w3.org/2000/svg" xmlns:xlink="http://www.w3.org/1999/xlink">
    <title>45.icon1</title>
    <g id="页面-1" stroke="none" stroke-width="1" fill="none" fill-rule="evenodd">
        <g id="45.计算任务" transform="translate(-509.000000, -143.000000)" fill="#3C3588">
            <g id="Module/Card/Donut-Chart-#1" transform="translate(293.000000, 80.000000)">
                <path d="M226,63 C220.485037,63 216,67.485037 216,73 C216,78.514963 220.485037,83 226,83 C231.514963,83 236,78.514963 236,73 C236,67.485037 231.514963,63 226,63 Z M225.852948,67.4117647 C223.992548,67.4117647 222.470676,68.8863005 222.470676,70.6888346 C222.464663,71.0541186 222.770119,71.3532787 223.14713,71.3532787 C223.524141,71.3532787 223.829597,71.0541186 223.823584,70.6888346 C223.823584,69.5953128 224.724321,68.7225926 225.852948,68.7225926 C226.981575,68.7225926 227.882311,69.5953128 227.882311,70.6888346 C227.890429,71.5866061 227.413604,72.0451045 226.747972,72.6550765 C226.415457,72.9600624 226.045662,73.2764089 225.733291,73.6926696 C225.420618,74.1092216 225.176493,74.6498653 225.176493,75.2767324 C225.17048,75.6420164 225.475937,75.9411765 225.852948,75.9411765 C226.229959,75.9411765 226.535415,75.6420164 226.529402,75.2767324 C226.529402,74.9525209 226.626812,74.7282237 226.825238,74.4643103 C227.023966,74.200397 227.331527,73.9216276 227.677872,73.6041159 C228.369659,72.9702578 229.24454,72.085012 229.23522,70.6888346 L229.23522,70.6821348 C229.231613,68.8830962 227.710943,67.4117647 225.852948,67.4117647 Z M226,76.5294118 C225.512941,76.5294118 225.117647,76.9247059 225.117647,77.4117647 C225.117647,77.8988235 225.512941,78.2941176 226,78.2941176 C226.487059,78.2941176 226.882353,77.8988235 226.882353,77.4117647 C226.882353,76.9247059 226.487059,76.5294118 226,76.5294118 Z" id="45.icon1"></path>
            </g>
        </g>
    </g>
</svg>