<?xml version="1.0" encoding="UTF-8"?>
<svg width="20px" height="9px" viewBox="0 0 20 9" version="1.1" xmlns="http://www.w3.org/2000/svg" xmlns:xlink="http://www.w3.org/1999/xlink">
    <title>46.icon1</title>
    <g id="页面-1" stroke="none" stroke-width="1" fill="none" fill-rule="evenodd">
        <g id="46.计算任务2" transform="translate(-328.000000, -490.000000)" fill="#EE502F" fill-rule="nonzero">
            <g id="Module/Card/Donut-Chart-#1" transform="translate(293.000000, 80.000000)">
                <g id="Element/Card/Base">
                    <g id="编组备份-4" transform="translate(20.000000, 309.000000)">
                        <g id="编组-7" transform="translate(0.000000, 60.000000)">
                            <g id="编组" transform="translate(0.000000, 31.000000)">
                                <g id="46.icon1" transform="translate(15.000000, 10.000000)">
                                    <path d="M4.8,0 L15.6,0 C18.04,0 20,1.96 20,4.4 C20,6.84 18.04,8.8 15.6,8.8 L4.4,8.8 C1.9699471,8.8 2.9759565e-16,6.8300529 0,4.4 L0,4.4 L0,4.4 C0,1.76 2.16,0 4.8,0 Z M7.4,6.8 L7.4,2.24 L6.8,2.24 L6.8,5.72 L4.6,2.24 L4,2.24 L4,6.8 L4.6,6.8 L4.6,3.32 L6.8,6.8 L7.4,6.8 L7.4,6.8 Z M10.96,4.68 L10.96,4.2 L9.08,4.2 L9.08,2.72 L11.24,2.72 L11.24,2.24 L8.48,2.24 L8.48,6.8 L11.28,6.8 L11.28,6.32 L9.08,6.32 L9.08,4.68 L10.96,4.68 L10.96,4.68 Z M12.92,5.24 L12.24,2.28 L11.56,2.28 L12.64,6.84 L13.2,6.84 L14.12,3.68 L14.2,3.28 L14.28,3.68 L15.2,6.84 L15.76,6.84 L16.88,2.28 L16.2,2.28 L15.56,5.24 L15.48,5.84 L15.36,5.24 L14.56,2.28 L13.96,2.28 L13.16,5.24 L13.04,5.84 L12.92,5.24 Z" id="形状"></path>
                                </g>
                            </g>
                        </g>
                    </g>
                </g>
            </g>
        </g>
    </g>
</svg>