<?xml version="1.0" encoding="UTF-8"?>
<svg width="14px" height="14px" viewBox="0 0 14 14" version="1.1" xmlns="http://www.w3.org/2000/svg" xmlns:xlink="http://www.w3.org/1999/xlink">
    <title>6.icon2</title>
    <g id="页面-1" stroke="none" stroke-width="1" fill="none" fill-rule="evenodd">
        <g id="6.种子节点管理" transform="translate(-591.000000, -341.000000)" fill="#0BB27A" fill-rule="nonzero">
            <g id="编组-7" transform="translate(313.000000, 156.000000)">
                <g id="编组备份-2" transform="translate(0.000000, 161.000000)">
                    <g id="6.icon2" transform="translate(278.000000, 24.000000)">
                        <path d="M7.00001408,0 C3.13399171,0 0,3.13399949 0,7.00001408 C0,10.8660287 3.13399171,14 7,14 C10.8660083,14 14,10.8660287 14,7.00001408 C14,3.13399949 10.8660505,0 7.00002816,0 L7.00001408,0 Z M6.1898764,10.0973036 L5.28237409,9.18981719 L3.18799177,7.09542501 C2.93733608,6.84484021 2.93733608,6.43852339 3.18799177,6.1879386 C3.43859115,5.9373538 3.84482431,5.9373538 4.09540961,6.1879386 L6.1898764,8.2823167 L10.2842587,4.1879386 C10.534844,3.9373538 10.9411757,3.9373538 11.191761,4.1879386 C11.4423463,4.43852339 11.4423463,4.84484021 11.191761,5.09542501 L7.09736464,9.18981719 L6.1898764,10.0973036 Z" id="形状"></path>
                    </g>
                </g>
            </g>
        </g>
    </g>
</svg>