<?xml version="1.0" encoding="UTF-8"?>
<svg width="5px" height="5px" viewBox="0 0 5 5" version="1.1" xmlns="http://www.w3.org/2000/svg" xmlns:xlink="http://www.w3.org/1999/xlink">
    <title>7.icon1</title>
    <g id="页面-1" stroke="none" stroke-width="1" fill="none" fill-rule="evenodd">
        <g id="7.种子节点管理编辑" transform="translate(-672.000000, -425.000000)" fill="#3C3588" fill-rule="nonzero">
            <g id="编组-7" transform="translate(313.000000, 156.000000)">
                <g id="编组备份-3" transform="translate(0.000000, 226.000000)">
                    <path d="M361.885233,45.5 L363.923756,43.4744817 C364.025415,43.3734716 364.025415,43.2086656 363.923756,43.0917065 L363.907705,43.0757576 C363.806046,42.9747475 363.640182,42.9747475 363.538523,43.0757576 L361.5,45.1172249 L359.461477,43.0917065 C359.359818,42.9906964 359.193954,42.9906964 359.092295,43.0917065 L359.076244,43.1076555 C358.974585,43.2086656 358.974585,43.3734716 359.076244,43.4904306 L361.114767,45.5 L359.076244,47.5255183 C358.974585,47.6265284 358.974585,47.7913344 359.076244,47.9082935 L359.092295,47.9242424 C359.193954,48.0252525 359.359818,48.0252525 359.461477,47.9242424 L361.5,45.8827751 L363.538523,47.9082935 C363.640182,48.0093036 363.806046,48.0093036 363.907705,47.9082935 L363.923756,47.8923445 C364.025415,47.7913344 364.025415,47.6265284 363.923756,47.5095694 L361.885233,45.5 Z" id="7.icon1"></path>
                </g>
            </g>
        </g>
    </g>
</svg>