<?xml version="1.0" encoding="UTF-8"?>
<svg width="34px" height="32px" viewBox="0 0 34 32" version="1.1" xmlns="http://www.w3.org/2000/svg" xmlns:xlink="http://www.w3.org/1999/xlink">
    <title>8.icon1</title>
    <g id="页面-1" stroke="none" stroke-width="1" fill="none" fill-rule="evenodd">
        <g id="8.弹窗" transform="translate(-403.000000, -220.000000)" fill-rule="nonzero">
            <g id="8.icon1" transform="translate(403.000000, 220.000000)">
                <path d="M12.70325,2.53428571 C14.6129167,-0.844285714 19.3870833,-0.844285714 21.29675,2.53428571 L33.3277917,23.825 C35.2374583,27.2042857 32.850375,31.4285714 29.0310417,31.4285714 L4.96895833,31.4285714 C1.149625,31.4285714 -1.23745833,27.2042857 0.672208333,23.825 L12.70325,2.53428571 Z" id="路径" fill="#FFA505"></path>
                <path d="M2.83333299,26.8435714 L2.83333299,24.4978571 C2.83333299,23.6335714 4.0715,23.5121429 4.23654167,24.3607143 L4.50075,25.72 C4.56728151,26.0615497 4.75518436,26.3668543 5.02916667,26.5785714 L6.40404167,27.6421429 C7.04366667,28.1357143 6.49966667,29.1514286 5.739625,28.8828571 L3.78179167,28.1921429 C3.21335389,27.9914159 2.8329154,27.4502006 2.83333299,26.8428571 L2.83333299,26.8435714 Z" id="路径" fill="#FFFFFF"></path>
                <path d="M14.3083333,10.7107143 C14.2572954,9.70777093 14.7588698,8.75818346 15.6127038,8.2412623 C16.4665379,7.72434114 17.5334621,7.72434114 18.3872962,8.2412623 C19.2411302,8.75818346 19.7427046,9.70777093 19.6916667,10.7107143 L19.38,17.0028571 C19.3180444,18.2828571 18.2708444,19.2885714 17,19.2885714 C15.7291556,19.2885714 14.6819556,18.2828571 14.62,17.0028571 L14.3083333,10.7107143 L14.3083333,10.7107143 Z" id="路径" fill="#FFFBF4"></path>
                <path d="M14.875,23.5714286 C14.875,24.7548959 15.8263949,25.7142857 17,25.7142857 C18.1736051,25.7142857 19.125,24.7548959 19.125,23.5714286 C19.125,22.3879613 18.1736051,21.4285714 17,21.4285714 C15.8263949,21.4285714 14.875,22.3879613 14.875,23.5714286 Z" id="路径" fill="#FFFBF4"></path>
            </g>
        </g>
    </g>
</svg>