<?xml version="1.0" encoding="UTF-8"?>
<svg width="12px" height="12px" viewBox="0 0 12 12" version="1.1" xmlns="http://www.w3.org/2000/svg" xmlns:xlink="http://www.w3.org/1999/xlink">
    <title>8.icon2</title>
    <g id="页面-1" stroke="none" stroke-width="1" fill="none" fill-rule="evenodd">
        <g id="8.弹窗" transform="translate(-953.000000, -219.000000)" fill="#646464">
            <g id="弹窗" transform="translate(383.000000, 200.000000)">
                <g id="顶部">
                    <g transform="translate(564.000000, 13.000000)">
                        <g id="icon/16px/3">
                            <path d="M12,4.5 C12.6213203,4.5 13.125,5.00367966 13.125,5.625 L13.125,10.875 L18.375,10.875 C18.9963203,10.875 19.5,11.3786797 19.5,12 C19.5,12.6213203 18.9963203,13.125 18.375,13.125 L13.125,13.125 L13.125,18.375 C13.125,18.9963203 12.6213203,19.5 12,19.5 C11.3786797,19.5 10.875,18.9963203 10.875,18.375 L10.875,13.125 L5.625,13.125 C5.00367966,13.125 4.5,12.6213203 4.5,12 C4.5,11.3786797 5.00367966,10.875 5.625,10.875 L10.875,10.875 L10.875,5.625 C10.875,5.00367966 11.3786797,4.5 12,4.5 Z" id="形状结合" transform="translate(12.000000, 12.000000) rotate(-45.000000) translate(-12.000000, -12.000000) "></path>
                        </g>
                    </g>
                </g>
            </g>
        </g>
    </g>
</svg>