<?xml version="1.0" encoding="UTF-8"?>
<svg width="14px" height="14px" viewBox="0 0 14 14" version="1.1" xmlns="http://www.w3.org/2000/svg" xmlns:xlink="http://www.w3.org/1999/xlink">
    <title>9.icon1</title>
    <g id="页面-1" stroke="none" stroke-width="1" fill="none" fill-rule="evenodd">
        <g id="9.浮窗" transform="translate(-604.000000, -63.000000)" fill="#52C41A">
            <g id="Group-5" transform="translate(588.000000, 50.000000)">
                <path d="M23,27 C19.1339198,27 16,23.8660802 16,20 C16,16.1339198 19.1339198,13 23,13 C26.8660802,13 30,16.1339198 30,20 C30,23.8660802 26.8660802,27 23,27 L23,27 Z M27.2314761,21.8557185 L21.5466276,16.3227761 C21.3755621,16.1517107 21.0977517,16.1517107 20.9266862,16.3227761 L18.7548387,18.398827 C18.5837732,18.5698925 18.5837732,18.8477028 18.7548387,19.0187683 L18.7548387,19.0187683 C18.9259042,19.1898338 19.2037146,19.1898338 19.3747801,19.0187683 L21.2373412,17.2520039 L26.6115347,22.4756598 C26.7826002,22.6467253 27.0604106,22.6467253 27.2314761,22.4756598 L27.2314761,22.4756598 C27.4025415,22.3045943 27.4025415,22.026784 27.2314761,21.8557185 L27.2314761,21.8557185 Z" id="9.icon1" transform="translate(23.000000, 20.000000) scale(1, -1) translate(-23.000000, -20.000000) "></path>
            </g>
        </g>
    </g>
</svg>