<?xml version="1.0" encoding="UTF-8"?>
<svg width="13px" height="14px" viewBox="0 0 13 14" version="1.1" xmlns="http://www.w3.org/2000/svg" xmlns:xlink="http://www.w3.org/1999/xlink">
    <title>3.icon2</title>
    <g id="ç®€åŒ–éƒ¨ç½²" stroke="none" stroke-width="1" fill="none" fill-rule="evenodd">
        <g id="3" transform="translate(-1180.000000, -598.000000)" fill="#8590A6">
            <g id="Card" transform="translate(293.000000, 110.000000)">
                <g id="ç¼–ç»„-8" transform="translate(527.000000, 339.000000)">
                    <g id="ç¼–ç»„-9å¤‡ä»½-3" transform="translate(0.000000, 32.000000)">
                        <g id="02ðŸ°-Iconå›¾æ ‡/08-çº¿æ€§-1.5px/100" transform="translate(358.500000, 116.000000)">
                            <path d="M3,14.5 C2.53843861,14.5 2.1947976,14.0903745 2.25682213,13.647854 L2.27642713,13.5526619 L3.51657558,9 L3,9 C2.62030423,9 2.30650904,8.71784612 2.25684662,8.35177056 L2.25,8.25 L2.25,5.25 C2.25,4.83578644 2.58578644,4.5 3,4.5 L3,4.5 L5.75,4.5 L5.75,2.25 C5.75,1.87030423 6.03215388,1.55650904 6.39822944,1.50684662 L6.39822944,1.50684662 L6.5,1.5 L9.5,1.5 C9.91421356,1.5 10.25,1.83578644 10.25,2.25 L10.25,2.25 L10.25,4.5 L13,4.5 C13.3796958,4.5 13.693491,4.78215388 13.7431534,5.14822944 L13.7431534,5.14822944 L13.75,5.25 L13.75,8.25 C13.75,8.66421356 13.4142136,9 13,9 L13,9 L12.4815756,9 L13.7235729,13.5526619 C13.8450177,13.9979597 13.5402438,14.4372717 13.0969962,14.4938675 L13,14.5 L3,14.5 Z M10.9265756,9 L5.07157558,9 L3.981,13 L5.74957558,13 L5.75,11.75 C5.75,11.3357864 6.08578644,11 6.5,11 C6.87969577,11 7.19349096,11.2821539 7.24315338,11.6482294 L7.25,11.75 L7.24957558,13 L8.74957558,13 L8.75,11.75 C8.75,11.3357864 9.08578644,11 9.5,11 C9.87969577,11 10.193491,11.2821539 10.2431534,11.6482294 L10.25,11.75 L10.2495756,13 L12.018,13 L10.9265756,9 Z M8.75,3 L7.25,3 L7.25,5.25 C7.25,5.62969577 6.96784612,5.94349096 6.60177056,5.99315338 L6.60177056,5.99315338 L6.5,6 L3.75,6 L3.75,7.5 L4.48384252,7.49997773 C4.49317782,7.49978056 4.50253767,7.49975868 4.51191786,7.49991448 L12.25,7.5 L12.25,6 L9.5,6 C9.12030423,6 8.80650904,5.71784612 8.75684662,5.35177056 L8.75684662,5.35177056 L8.75,5.25 L8.75,3 Z" id="å½¢çŠ¶ç»“åˆ"></path>
                        </g>
                    </g>
                </g>
            </g>
        </g>
    </g>
</svg>