<?xml version="1.0" encoding="UTF-8"?>
<svg width="400px" height="160px" viewBox="0 0 400 160" version="1.1" xmlns="http://www.w3.org/2000/svg" xmlns:xlink="http://www.w3.org/1999/xlink">
    <title>PlatON-横-白底</title>
    <g id="PlatON-横-白底" stroke="none" stroke-width="1" fill="none" fill-rule="evenodd">
        <g id="Group-2" transform="translate(10.000000, 11.000000)" fill-rule="nonzero">
            <g id="Group-Copy-12">
                <polygon id="Rectangle-path" fill="#FBB613" points="51.9760429 52.1280822 85.9494746 52.1280822 85.9494746 86.1082192 51.9760429 86.1082192"></polygon>
                <g id="Group" transform="translate(18.900379, 18.904110)" fill="#1D2337">
                    <path d="M16.7740866,100.09726 L85.4769652,100.09726 C93.4151244,100.09726 99.8885043,93.6226027 99.8885043,85.6828767 L99.8885043,16.9664384 L84.1066877,16.9664384 L84.1066877,84.2650685 L16.7740866,84.2650685 L16.7740866,100.09726 Z" id="Shape"></path>
                    <path d="M83.3979234,16.210274 L83.3979234,0.378082192 L14.6950449,0.378082192 C6.75688558,0.378082192 0.283505689,6.85273973 0.283505689,14.7924658 L0.283505689,83.5089041 L16.0653224,83.5089041 L16.0653224,16.210274 L83.3979234,16.210274 Z" id="Shape"></path>
                </g>
                <polygon id="Rectangle-path" fill="#00B6DC" points="118.788884 0.425342466 137.642012 0.425342466 137.642012 19.2821918 118.788884 19.2821918"></polygon>
                <polygon id="Rectangle-path" fill="#EA106E" points="0.330756637 119.00137 19.1838849 119.00137 19.1838849 137.858219 0.330756637 137.858219"></polygon>
            </g>
            <g id="Group-Copy-11" transform="translate(163.842663, 44.850000)" fill="#1D2337">
                <path d="M117.591843,24.4936782 L117.591843,24.4936782 L117.591843,17.471408 L108.528996,17.471408 L108.528996,7.80876437 L108.472705,7.80876437 L100.423096,7.80876437 L100.423096,37.2461207 C100.423096,44.0998563 104.588628,48.3132184 111.343545,48.3132184 L118.717663,48.3132184 L118.717663,41.0100575 L111.118381,41.0100575 C109.091906,41.0100575 108.528996,40.4482759 108.528996,38.4258621 L108.528996,24.4936782 L117.591843,24.4936782 L117.591843,24.4936782 Z" id="Shape"></path>
                <path d="M148.101551,0.280890805 C134.253971,0.280890805 122.995777,11.0670977 122.995777,24.3251437 C122.995777,37.5831897 134.253971,48.3693966 148.101551,48.3693966 C161.94913,48.3693966 173.207325,37.5831897 173.207325,24.3251437 C173.207325,11.0670977 161.94913,0.280890805 148.101551,0.280890805 Z M148.101551,40.5606322 C139.094995,40.5606322 131.777168,33.2574713 131.777168,24.3251437 C131.777168,15.3928161 139.094995,8.08965517 148.101551,8.08965517 C157.108106,8.08965517 164.425933,15.3928161 164.425933,24.3251437 C164.425933,33.2574713 157.108106,40.5606322 148.101551,40.5606322 Z" id="Shape"></path>
                <polygon id="Shape" points="207.375946 0.280890805 207.375946 31.7406609 184.352937 0.280890805 178.048348 0.280890805 178.048348 48.3132184 178.048348 48.3132184 178.104639 48.3132184 186.379413 48.3132184 186.379413 16.1231322 209.402421 48.3132184 215.70701 48.3132184 215.70701 0.280890805"></polygon>
                <polygon id="Shape" points="42.2745209 48.3693966 42.2745209 0.280890805 42.3308119 0.280890805 50.7744579 0.280890805 50.7744579 48.3693966 50.7744579 48.3693966"></polygon>
                <path d="M92.0357413,14.8310345 L84.323878,14.8310345 L84.323878,18.2017241 C83.3669314,17.4152299 82.2974029,16.741092 81.1715835,16.2354885 C79.0325265,15.2242816 76.6683056,14.7186782 74.1352118,14.7186782 C69.1253152,14.7186782 64.9597832,16.2354885 61.8637796,19.2691092 C58.7677761,22.3027299 57.1916288,26.3475575 57.1916288,31.2350575 C57.1916288,33.4821839 57.5856657,35.616954 58.3737393,37.5831897 C59.1618129,39.5494253 60.3439233,41.2909483 61.9200706,42.8639368 C63.5525088,44.4369253 65.4101109,45.6728448 67.492877,46.5155172 C69.575643,47.3581897 71.8272819,47.7514368 74.0789208,47.7514368 C76.6683056,47.7514368 79.0325265,47.2458333 81.0590015,46.3469828 C82.072239,45.8975575 83.0854766,45.2795977 83.9298411,44.5492816 L83.9298411,48.4255747 L91.9794503,48.4255747 L92.0357413,14.8310345 Z M84.211296,31.2350575 C84.211296,33.9877874 83.3106404,36.2349138 81.6219112,37.9202586 C79.8768911,39.6617816 77.6252521,40.504454 74.8669945,40.504454 C72.1087368,40.504454 69.8570978,39.6617816 68.1120777,37.9202586 C66.3670575,36.2349138 65.5226929,33.9316092 65.5226929,31.1788793 C65.5226929,28.4261494 66.4233485,26.179023 68.1120777,24.4936782 C69.8570978,22.7521552 72.1087368,21.9094828 74.8669945,21.9094828 C77.6252521,21.9094828 79.8768911,22.8083333 81.6219112,24.4936782 C83.3669314,26.2913793 84.211296,28.5385057 84.211296,31.2350575 Z" id="Shape"></path>
                <path d="M35.1818583,10.4491379 C34.2812027,8.4829023 33.0990923,6.68520115 31.635527,5.22456897 C30.1156707,3.70775862 28.3706505,2.52801724 26.3441755,1.68534483 C24.3177005,0.786494253 22.1223525,0.337068966 19.8707136,0.337068966 L0.450327786,0.337068966 L0.450327786,48.4255747 L8.72510086,48.4255747 L8.72510086,33.5945402 L19.8144226,33.5945402 C22.1223525,33.5945402 24.2614095,33.1451149 26.2878845,32.2462644 C28.3143596,31.3474138 30.1156707,30.1676724 31.579236,28.7070402 C33.0990923,27.1902299 34.2812027,25.4487069 35.1255673,23.4262931 C36.0262229,21.4038793 36.4765507,19.212931 36.4765507,16.9658046 C36.4765507,14.7186782 36.0262229,12.4153736 35.1818583,10.4491379 Z M28.2017776,16.8534483 C28.2017776,19.1005747 27.357413,21.1229885 25.7249748,22.7521552 C24.0925366,24.3813218 22.0660615,25.2239943 19.8144226,25.2239943 L8.72510086,25.2239943 L8.72510086,8.53908046 L19.8144226,8.53908046 C22.0660615,8.53908046 24.0925366,9.38175287 25.7249748,11.0109195 C27.357413,12.583908 28.2017776,14.5501437 28.2017776,16.8534483 Z" id="Shape"></path>
            </g>
        </g>
    </g>
</svg>