<?xml version="1.0" encoding="UTF-8"?>
<svg width="154px" height="60px" viewBox="0 0 154 60" version="1.1" xmlns="http://www.w3.org/2000/svg" xmlns:xlink="http://www.w3.org/1999/xlink">
    <title>1.icon_logo</title>
    <g id="页面-1" stroke="none" stroke-width="1" fill="none" fill-rule="evenodd">
        <g id="首页" transform="translate(-160.000000, -30.000000)" fill="#FFFFFF">
            <g id="1.icon_logo" transform="translate(160.000000, 30.000000)">
                <path d="M37.1478,54.7437 L37.1168,54.5947 L36.8208,54.7787 L37.1478,54.7437 Z M36.5118,55.1857 L36.6418,54.8897 L36.6118,54.9097 L36.1148,54.6427 L35.8908,54.9307 L35.8908,54.9307 L35.8348,54.9237 L35.9468,55.1077 L36.0858,55.0037 L36.5118,55.1857 Z M34.0158,53.5967 L34.0478,53.7427 L34.3448,53.5587 L34.0158,53.5967 Z M34.6538,53.1517 L34.5238,53.4477 L34.5538,53.4297 L35.0488,53.6957 L35.2728,53.4077 L35.2738,53.4057 L35.3308,53.4147 L35.2188,53.2297 L35.0808,53.3337 L34.6538,53.1517 Z M36.5938,53.5467 L36.2528,53.3997 L36.1848,53.5237 L36.0898,53.5257 L36.2158,53.8387 L36.2468,53.9147 L36.5718,53.7137 L36.9658,53.9247 L36.6738,53.5287 L36.7018,53.4677 L36.5938,53.5467 Z M27.7458,51.9727 L27.7878,52.0417 L27.7018,52.1957 L28.2158,52.1807 L27.7458,51.9727 Z M28.4318,52.2787 L28.3768,52.2557 L28.4698,52.4057 L28.5368,52.2017 L28.4318,52.2787 Z M27.6708,51.8527 L27.6268,51.4287 L27.3238,51.4907 L27.4478,51.4877 L27.6708,51.8527 Z M37.6548,55.0017 L37.8938,55.3257 L37.5878,56.0237 L36.8298,56.1077 L36.6428,55.8547 L36.2238,56.1697 L35.8568,56.0137 L35.7878,56.1427 L35.4958,56.1487 L35.9248,56.6397 L35.6848,57.3537 L35.2228,57.4487 L35.6898,57.8167 L35.5828,58.5667 L34.8778,58.8477 L34.2858,58.3797 L34.3938,57.6297 L34.8838,57.4337 L34.4448,56.9387 L34.6878,56.2227 L35.0088,56.1567 L34.8328,55.8637 L34.7108,55.9567 L34.1708,55.7247 L34.1008,55.1427 L34.2628,55.0217 L34.1668,55.0157 L34.0628,54.8057 L33.8568,55.1937 L33.2558,55.2147 L32.9388,54.7047 L33.1638,54.2837 L33.1318,54.2727 L33.0578,53.9167 L32.7758,54.2807 L32.1998,54.2027 L32.0908,53.9417 L31.5988,54.5627 L30.8118,54.4487 L30.5908,53.8977 L30.0188,54.3977 L29.2558,54.1357 L29.1568,53.6327 L29.1598,53.7957 L28.8068,54.0097 L28.9408,53.9817 L29.3368,54.4337 L29.1868,54.8807 L29.7088,54.6647 L30.1708,55.0207 L30.0938,55.5977 L29.5538,55.8197 L29.0928,55.4647 L29.1618,54.9527 L29.1458,55.0027 L28.5568,55.1207 L28.2348,54.7557 L28.2378,54.9317 L27.9178,55.1227 L28.6368,55.3747 L28.7818,56.1397 L28.3178,56.5397 L29.0438,56.6457 L29.3248,57.3477 L28.8568,57.9417 L28.1088,57.8357 L27.8278,57.1327 L28.2418,56.6047 L28.1908,56.6497 L27.4538,56.3927 L27.3078,55.6267 L27.8348,55.1727 L27.5228,55.3567 L27.1458,55.1447 L27.2568,55.2727 L27.0658,55.8417 L26.6028,55.9337 L27.0508,56.2787 L26.9728,56.8567 L26.4338,57.0777 L25.9728,56.7227 L26.0508,56.1447 L26.5288,55.9467 L26.4768,55.9587 L26.0808,55.5077 L26.2348,55.0487 L26.0828,55.1397 L25.7598,54.9567 L25.9008,55.7047 L25.3078,56.2137 L24.7318,56.0127 L25.0038,56.6937 L24.5358,57.2887 L23.7848,57.1807 L23.5048,56.4767 L23.9728,55.8827 L24.6318,55.9757 L24.5728,55.9577 L24.4268,55.1897 L25.0198,54.6807 L25.6708,54.9087 L25.3578,54.7317 L25.3548,54.3547 L25.3158,54.4727 L24.7078,54.5977 L24.4198,54.2737 L24.3478,54.8017 L23.7818,55.0367 L23.2958,54.6617 L23.3768,54.0547 L23.9438,53.8207 L24.3058,54.0997 L24.4888,53.5457 L25.0968,53.4207 L25.3598,53.7137 L25.2938,53.6047 L25.6028,53.0357 L26.2118,53.0197 L26.2708,52.6117 L26.3368,52.5857 L26.1118,52.4597 L26.0338,52.6397 L25.4058,52.7137 L25.0288,52.2057 L25.2808,51.6257 L25.7168,51.5767 L25.7138,51.4037 L26.0098,51.2247 L25.3128,50.9847 L25.1568,50.1937 L25.5798,49.8237 L24.8958,49.7227 L24.5998,48.9837 L25.0928,48.3577 L25.8798,48.4727 L26.1768,49.2127 L25.8078,49.6797 L26.5268,49.9267 L26.6818,50.7167 L26.2988,51.0527 L26.4348,50.9697 L26.7488,51.1427 L26.6878,51.0737 L26.8828,50.4847 L27.3078,50.3957 L26.8848,50.0707 L26.9658,49.4637 L27.5338,49.2287 L28.0178,49.6047 L27.9378,50.2117 L27.5148,50.3867 L27.9028,50.8227 L27.8658,50.9307 L28.2608,50.6437 L29.0108,50.9787 L29.0928,51.7747 L29.2568,51.7417 L29.5448,52.0637 L29.6158,51.5367 L30.1818,51.3037 L30.6678,51.6767 L30.5858,52.2847 L30.0208,52.5177 L29.6578,52.2387 L29.4738,52.7947 L29.0258,52.8877 L29.1458,52.9527 L29.1508,53.3007 L29.7088,52.8147 L30.4718,53.0747 L30.5808,53.6287 L31.0098,53.0857 L31.7978,53.1977 L31.9808,53.6577 L32.3328,53.2037 L32.9098,53.2807 L33.0648,53.6577 L33.4438,53.3167 L33.5108,53.3387 L33.2728,53.0127 L33.5788,52.3147 L34.3358,52.2297 L34.5208,52.4817 L34.9398,52.1677 L35.3078,52.3257 L35.3768,52.1957 L35.6728,52.1887 L35.2388,51.6997 L35.4798,50.9827 L35.9438,50.8897 L35.4748,50.5207 L35.5838,49.7707 L36.2868,49.4897 L36.8798,49.9597 L36.7718,50.7077 L36.2818,50.9037 L36.7188,51.4007 L36.4788,52.1157 L36.1558,52.1807 L36.3328,52.4727 L36.4538,52.3827 L36.9938,52.6117 L37.0208,52.8247 L37.7408,52.7457 L38.1908,53.3607 L38.0358,53.7137 L38.3888,53.7637 L38.5138,54.0747 L38.9678,54.1357 L39.1888,54.6737 L38.8328,55.1357 L38.2548,55.0577 L38.0998,54.6817 L37.7228,55.0217 L37.6548,55.0017 Z M38.5998,52.2757 L38.2428,52.7377 L38.4658,53.2757 L39.0428,53.3527 L39.3978,52.8927 L39.1758,52.3527 L38.5998,52.2757 Z M37.2458,51.2217 L36.8888,51.6817 L37.1108,52.2217 L37.6888,52.2987 L38.0448,51.8377 L37.8208,51.2987 L37.2458,51.2217 Z M33.4768,56.0397 L33.1208,56.5017 L33.3408,57.0387 L33.9198,57.1177 L34.2738,56.6557 L34.0538,56.1167 L33.4768,56.0397 Z M34.2178,50.7937 L33.8608,51.2557 L34.0828,51.7937 L34.6598,51.8717 L35.0148,51.4097 L34.7948,50.8717 L34.2178,50.7937 Z M38.0948,56.1807 L37.9868,56.9307 L38.5808,57.3967 L39.2828,57.1177 L39.3928,56.3677 L38.7958,55.9007 L38.0948,56.1807 Z M33.0728,52.1577 L33.1798,51.4077 L32.5848,50.9387 L31.8818,51.2217 L31.7748,51.9707 L32.3678,52.4387 L33.0728,52.1577 Z M34.5358,58.9807 L34.3468,59.4987 L34.7008,59.9217 L35.2448,59.8247 L35.4328,59.3067 L35.0778,58.8857 L34.5358,58.9807 Z M40.5408,52.0837 L40.3698,52.5547 L40.6918,52.9367 L41.1858,52.8497 L41.3568,52.3797 L41.0348,51.9967 L40.5408,52.0837 Z M32.1958,54.5577 L32.0228,55.0297 L32.3448,55.4127 L32.8388,55.3257 L33.0108,54.8527 L32.6888,54.4717 L32.1958,54.5577 Z M23.7658,51.3297 L24.2518,51.7047 L24.8168,51.4717 L24.8988,50.8647 L24.4138,50.4897 L23.8468,50.7227 L23.7658,51.3297 Z M30.0048,50.4937 L30.4988,49.8677 L30.2028,49.1287 L29.4148,49.0137 L28.9208,49.6397 L29.2168,50.3807 L30.0048,50.4937 Z M8.7038,43.1727 L8.6228,43.7797 L9.1078,44.1547 L9.6748,43.9217 L9.7548,43.3137 L9.2708,42.9387 L8.7038,43.1727 Z M13.5568,42.3537 L13.6358,41.7467 L13.1508,41.3737 L12.5848,41.6067 L12.5028,42.2127 L12.9878,42.5887 L13.5568,42.3537 Z M6.9618,37.1997 L7.0438,36.5917 L6.5568,36.2167 L5.9918,36.4497 L5.9108,37.0567 L6.3958,37.4317 L6.9618,37.1997 Z M14.1408,38.2107 L14.2228,37.6027 L13.7358,37.2287 L13.1698,37.4627 L13.0878,38.0697 L13.5728,38.4437 L14.1408,38.2107 Z M6.4598,40.7357 L5.9748,40.3607 L5.4078,40.5947 L5.3248,41.1997 L5.8098,41.5757 L6.3778,41.3427 L6.4598,40.7357 Z M5.2228,44.6137 L4.8768,45.0527 L5.0838,45.5697 L5.6358,45.6487 L5.9808,45.2117 L5.7738,44.6937 L5.2228,44.6137 Z M6.0848,42.9117 L5.5908,43.5397 L5.8858,44.2777 L6.6748,44.3907 L7.1688,43.7657 L6.8718,43.0267 L6.0848,42.9117 Z M7.3658,41.3717 L6.6898,41.9297 L6.8348,42.7937 L7.6558,43.0997 L8.3308,42.5427 L8.1878,41.6777 L7.3658,41.3717 Z M13.9568,35.2657 L13.6608,34.5247 L12.8718,34.4127 L12.3788,35.0387 L12.6748,35.7777 L13.4628,35.8937 L13.9568,35.2657 Z M12.1808,37.4337 L12.8568,36.8757 L12.7128,36.0117 L11.8918,35.7057 L11.2148,36.2627 L11.3598,37.1277 L12.1808,37.4337 Z M11.4608,43.7277 L10.9688,44.3527 L11.2648,45.0927 L12.0528,45.2067 L12.5458,44.5817 L12.2498,43.8407 L11.4608,43.7277 Z M11.9168,43.0857 L11.7718,42.2207 L10.9508,41.9137 L10.2748,42.4727 L10.4188,43.3367 L11.2408,43.6427 L11.9168,43.0857 Z M10.4278,42.0787 L11.2878,41.5907 L11.2918,40.8557 L11.4418,40.5947 L11.5238,40.6397 L11.3068,41.2397 L11.7418,41.7547 L12.4048,41.6377 L12.6358,41.0037 L12.2008,40.4877 L11.7178,40.5727 L12.4198,40.1737 L12.4238,39.1827 L11.7918,38.8137 L11.6388,38.5547 L11.7208,38.5067 L12.1308,38.9927 L12.7948,38.8737 L13.0238,38.2397 L12.5908,37.7237 L11.9268,37.8427 L11.7588,38.3057 L11.7638,37.4957 L10.9098,36.9987 L10.2718,37.3597 L9.9718,37.3627 L9.9718,37.2657 L10.5968,37.1557 L10.8268,36.5217 L10.3918,36.0057 L9.7288,36.1237 L9.4998,36.7577 L9.8158,37.1337 L9.1178,36.7247 L8.2588,37.2157 L8.2558,37.9487 L8.1048,38.2117 L8.0228,38.1637 L8.2388,37.5647 L7.8048,37.0507 L7.1418,37.1677 L6.9108,37.8027 L7.3458,38.3177 L7.8308,38.2317 L7.1268,38.6317 L7.1218,39.6207 L7.7568,39.9917 L7.9078,40.2507 L7.8238,40.2987 L7.4148,39.8127 L6.7508,39.9307 L6.5218,40.5637 L6.9578,41.0807 L7.6208,40.9627 L7.7868,40.5007 L7.7838,41.3087 L8.6368,41.8067 L9.2738,41.4447 L9.5758,41.4417 L9.5758,41.5367 L8.9488,41.6477 L8.7198,42.2837 L9.1538,42.8007 L9.8178,42.6807 L10.0488,42.0467 L9.7308,41.6707 L10.4278,42.0787 Z M8.0858,35.0787 L8.5788,34.4507 L8.3718,33.9317 L8.3868,33.8277 L8.3038,33.7637 L8.2828,33.7117 L8.2298,33.7057 L7.7608,33.3347 L7.0218,33.6317 L6.9068,34.4197 L7.1608,34.6177 L7.2978,34.9647 L8.0858,35.0787 Z M8.5968,36.8907 L9.2728,36.3337 L9.1268,35.4687 L8.3058,35.1607 L7.6298,35.7207 L7.7748,36.5837 L8.5968,36.8907 Z M15.4468,40.9577 L15.9398,40.3307 L15.6438,39.5917 L14.8538,39.4777 L14.3608,40.1047 L14.6568,40.8437 L15.4468,40.9577 Z M12.6818,40.5037 L13.5028,40.8097 L14.1798,40.2517 L14.0338,39.3887 L13.2148,39.0817 L12.5368,39.6397 L12.6818,40.5037 Z M4.1008,37.8487 L3.6078,38.4737 L3.9038,39.2137 L4.6918,39.3287 L5.1848,38.7017 L4.8898,37.9627 L4.1008,37.8487 Z M7.0098,39.1667 L6.8648,38.3027 L6.0438,37.9947 L5.3668,38.5537 L5.5128,39.4177 L6.3328,39.7237 L7.0098,39.1667 Z M4.8118,32.5957 L4.5478,32.9367 L4.7118,33.3327 L5.1378,33.3897 L5.3988,33.0497 L5.2348,32.6537 L4.8118,32.5957 Z M5.4038,31.1837 L5.0288,31.6707 L5.2608,32.2367 L5.8678,32.3197 L6.2428,31.8327 L6.0088,31.2647 L5.4038,31.1837 Z M7.2828,30.7517 L7.1688,30.0487 L6.5028,29.7947 L5.9488,30.2437 L6.0628,30.9477 L6.7288,31.2027 L7.2828,30.7517 Z M10.9078,24.1517 L11.1418,24.7177 L11.7488,24.8007 L12.1228,24.3137 L11.8908,23.7467 L11.2818,23.6667 L10.9078,24.1517 Z M10.5948,32.9837 L10.9688,32.4997 L10.7358,31.9317 L10.1268,31.8507 L9.7538,32.3357 L9.9868,32.9017 L10.5948,32.9837 Z M9.0998,30.6887 L9.2118,31.3927 L9.8788,31.6457 L10.4318,31.1967 L10.3188,30.4927 L9.6518,30.2377 L9.0998,30.6887 Z M6.5568,22.9997 L6.1818,23.4837 L6.4158,24.0527 L7.0238,24.1337 L7.3978,23.6467 L7.1638,23.0807 L6.5568,22.9997 Z M7.2728,24.3387 L6.7198,24.7877 L6.8318,25.4917 L7.4988,25.7467 L8.0518,25.2957 L7.9388,24.5917 L7.2728,24.3387 Z M15.3258,28.7957 L15.1628,28.3977 L14.7378,28.3417 L14.4758,28.6817 L14.6388,29.0787 L15.0628,29.1357 L15.3258,28.7957 Z M13.9088,28.7397 L13.6758,28.1727 L13.0678,28.0917 L12.6938,28.5767 L12.9278,29.1427 L13.5348,29.2237 L13.9088,28.7397 Z M11.0598,28.1817 L11.1738,28.8857 L11.8388,29.1397 L12.3918,28.6897 L12.2788,27.9867 L11.6128,27.7317 L11.0598,28.1817 Z M3.2438,27.2427 L3.4758,27.8107 L4.0838,27.8917 L4.4578,27.4067 L4.2258,26.8397 L3.6178,26.7577 L3.2438,27.2427 Z M0.7108,30.8477 L0.6318,31.3997 L1.0698,31.7447 L1.5868,31.5387 L1.6668,30.9857 L1.2288,30.6407 L0.7108,30.8477 Z M2.1758,29.7617 L2.0618,30.5497 L2.6878,31.0427 L3.4278,30.7467 L3.5428,29.9587 L2.9148,29.4657 L2.1758,29.7617 Z M5.6418,29.3617 L5.0648,28.6387 L4.1478,28.7757 L3.8108,29.6387 L4.3878,30.3627 L5.3038,30.2247 L5.6418,29.3617 Z M6.0868,29.6827 L5.5588,28.7257 L6.1228,27.7887 L6.2718,27.7917 L6.2748,27.4197 L5.8678,26.6817 L6.4318,25.7447 L7.5248,25.7657 L7.5968,25.8977 L7.9868,25.6757 L8.2098,25.8067 L8.4508,25.4477 L8.7208,25.4677 L8.3718,24.8937 L8.8088,24.0927 L9.7198,24.0697 L10.1958,24.8487 L10.0808,25.0597 L10.4228,24.7817 L11.0898,25.0367 L11.2008,25.7397 L10.6488,26.1897 L9.9818,25.9357 L9.8958,25.3977 L9.7578,25.6507 L9.6038,25.6537 L9.7878,26.0307 L10.2218,26.2857 L11.0638,26.3017 L11.5948,27.2587 L11.0298,28.1957 L10.8788,28.1917 L10.8768,28.5647 L11.2838,29.3027 L10.7198,30.2377 L9.6268,30.2177 L9.5548,30.0877 L9.2298,30.2707 L8.7958,30.9917 L7.7038,30.9727 L7.1738,30.0147 L7.2508,29.8877 L6.9288,29.6987 L6.0868,29.6827 Z M11.8478,25.7597 L11.5088,26.6227 L12.0868,27.3467 L13.0018,27.2107 L13.3418,26.3477 L12.7648,25.6217 L11.8478,25.7597 Z M7.3798,31.3547 L7.0408,32.2177 L7.6188,32.9417 L8.5338,32.8047 L8.8728,31.9407 L8.2948,31.2187 L7.3798,31.3547 Z M12.3838,31.2977 L12.7218,30.4337 L12.1448,29.7087 L11.2278,29.8477 L10.8898,30.7097 L11.4668,31.4347 L12.3838,31.2977 Z M4.3568,24.6147 L4.4698,23.8267 L3.8438,23.3347 L3.1048,23.6297 L2.9898,24.4177 L3.6158,24.9107 L4.3568,24.6147 Z M5.9228,26.1377 L6.2618,25.2747 L5.6848,24.5497 L4.7688,24.6867 L4.4288,25.5497 L5.0058,26.2747 L5.9228,26.1377 Z M7.9198,19.2477 L7.8398,19.8537 L8.3248,20.2287 L8.8918,19.9957 L8.9738,19.3887 L8.4888,19.0137 L7.9198,19.2477 Z M9.5278,18.4087 L9.2608,19.0937 L9.7198,19.6697 L10.4458,19.5577 L10.7148,18.8727 L10.2548,18.2987 L9.5278,18.4087 Z M18.3758,16.1687 L18.4578,15.5607 L17.9718,15.1867 L17.4048,15.4217 L17.3228,16.0267 L17.8098,16.4017 L18.3758,16.1687 Z M15.8508,15.8577 L15.5818,16.5427 L16.0418,17.1187 L16.7688,17.0067 L17.0378,16.3217 L16.5768,15.7487 L15.8508,15.8577 Z M11.9478,22.3957 L11.8678,23.0037 L12.3528,23.3797 L12.9188,23.1457 L13.0018,22.5387 L12.5158,22.1637 L11.9478,22.3957 Z M14.3478,13.0197 L14.4298,12.4117 L13.9448,12.0377 L13.3768,12.2707 L13.2948,12.8797 L13.7818,13.2537 L14.3478,13.0197 Z M16.6908,20.4837 L16.6098,21.0917 L17.0958,21.4647 L17.6618,21.2327 L17.7428,20.6247 L17.2588,20.2497 L16.6908,20.4837 Z M15.3738,19.2337 L15.1058,19.9187 L15.5648,20.4927 L16.2938,20.3837 L16.5608,19.6977 L16.1028,19.1237 L15.3738,19.2337 Z M9.6058,14.9317 L9.6878,14.3247 L9.2038,13.9507 L8.6358,14.1837 L8.5538,14.7907 L9.0398,15.1647 L9.6058,14.9317 Z M9.7358,15.7177 L10.1958,16.2937 L10.9208,16.1817 L11.1918,15.4987 L10.7328,14.9237 L10.0028,15.0347 L9.7358,15.7177 Z M5.2378,17.1467 L5.5828,16.7087 L5.3758,16.1897 L4.8238,16.1097 L4.4798,16.5497 L4.6868,17.0667 L5.2378,17.1467 Z M6.8738,17.4527 L7.3678,16.8277 L7.0708,16.0877 L6.2828,15.9737 L5.7908,16.5997 L6.0858,17.3387 L6.8738,17.4527 Z M8.3958,17.8567 L8.9598,17.3667 L8.9808,17.7817 L9.9158,18.2617 L10.4318,17.9277 L10.4288,18.0027 L10.7508,18.2147 L10.6808,18.3337 L10.9198,18.7627 L10.7818,18.8387 L10.7528,19.9907 L11.7378,20.5917 L12.0668,20.4127 L12.4068,20.9287 L12.1478,20.9807 L11.9258,21.6447 L12.3918,22.1707 L13.0788,22.0307 L13.2998,21.3647 L12.9178,20.9337 L13.2368,20.9147 L13.3748,20.6397 L13.8868,20.9747 L14.9648,20.4327 L15.0258,19.3607 L15.3268,18.8567 L15.5468,18.7457 L15.5488,18.7757 L16.4858,19.2557 L17.3218,18.7147 L17.3878,19.0527 L18.2498,19.3487 L18.9378,18.7517 L18.7638,17.8557 L17.9008,17.5597 L17.3358,18.0507 L17.3168,17.6357 L16.3808,17.1557 L15.8638,17.4887 L15.8688,17.4137 L15.5448,17.2017 L15.6168,17.0837 L15.3768,16.6547 L15.5148,16.5797 L15.5438,15.4257 L14.5588,14.8247 L14.2308,15.0037 L13.8908,14.4887 L14.1488,14.4347 L14.3718,13.7697 L13.9048,13.2457 L13.2178,13.3877 L12.9968,14.0527 L13.3778,14.4817 L13.0588,14.5017 L12.9018,14.8177 L12.3698,14.4927 L11.3558,15.0437 L11.3348,15.9497 L10.9688,16.5597 L10.7478,16.6717 L10.7468,16.6397 L9.8108,16.1617 L8.9748,16.7007 L8.9088,16.3637 L8.0478,16.0677 L7.3588,16.6667 L7.5328,17.5597 L8.3958,17.8567 Z M8.2138,22.7877 L8.5078,23.5267 L9.0438,23.6037 L9.3758,24.0067 L10.1088,23.8847 L10.3698,23.1887 L9.8988,22.6137 L9.6478,22.6557 L9.4958,22.2747 L8.7068,22.1617 L8.2138,22.7877 Z M10.2508,20.2227 L9.4978,20.8127 L9.5748,21.3587 L9.5218,21.3807 L9.4368,21.9717 L9.9048,22.3407 L10.4608,22.1197 L10.4628,22.0937 L10.5178,22.1157 L11.2708,21.5267 L11.1368,20.5817 L10.2508,20.2227 Z M15.0268,13.8897 L15.1598,14.8367 L16.0458,15.1947 L16.7988,14.6057 L16.6658,13.6577 L16.3268,13.5207 L16.3768,13.1747 L15.7508,12.6817 L15.0108,12.9767 L14.8968,13.7657 L15.0418,13.8797 L15.0268,13.8897 Z M16.1118,25.2927 L15.6708,25.8547 L15.9358,26.5217 L16.6468,26.6237 L17.0888,26.0607 L16.8228,25.3937 L16.1118,25.2927 Z M15.3968,23.0007 L14.7098,23.5977 L14.8838,24.4927 L15.7458,24.7897 L16.4348,24.1927 L16.2598,23.2977 L15.3968,23.0007 Z M13.8278,21.3527 L13.8808,22.4027 L14.8168,22.8827 L15.6998,22.3127 L15.6468,21.2627 L14.7118,20.7827 L13.8278,21.3527 Z M10.7798,14.1727 L11.6678,14.5317 L12.4198,13.9417 L12.2858,12.9947 L11.3988,12.6377 L10.6458,13.2257 L10.7798,14.1727 Z M16.2278,10.0417 L16.4618,10.6087 L17.0688,10.6897 L17.4428,10.2057 L17.2098,9.6387 L16.6008,9.5567 L16.2278,10.0417 Z M19.1088,15.7487 L19.4828,15.2627 L19.2508,14.6957 L18.6438,14.6137 L18.2698,15.0987 L18.5018,15.6667 L19.1088,15.7487 Z M20.1038,14.4997 L20.7008,14.0307 L20.5918,13.2807 L19.8898,12.9987 L19.2938,13.4657 L19.3998,14.2167 L20.1038,14.4997 Z M25.8298,7.1547 L26.2028,6.6697 L25.9698,6.1027 L25.3628,6.0207 L24.9878,6.5077 L25.2218,7.0747 L25.8298,7.1547 Z M23.8788,8.4887 L24.5828,8.7697 L24.9798,8.4597 L25.2218,9.0667 L25.7218,9.1397 L25.6588,9.2917 L26.2588,10.0737 L27.2338,9.9437 L27.4028,9.5357 L27.8448,9.6997 L28.5948,9.0767 L28.5778,8.9767 L28.6168,9.0087 L28.6378,9.6567 L29.6778,10.2197 L30.3528,9.8037 L30.3438,9.9527 L30.7448,10.2227 L30.6588,10.3637 L30.9508,10.9077 L30.7948,10.9907 L30.7418,12.3207 L31.8668,13.0337 L32.3038,12.8037 L32.7238,13.4657 L33.6328,13.4307 L33.8458,13.0247 L34.4868,13.4297 L35.6658,12.8107 L35.7108,11.7187 L36.1208,11.0547 L36.5458,10.8497 L36.5478,10.9397 L37.5498,11.4977 L38.5338,10.9077 L38.5148,9.7617 L37.9578,9.4527 L38.0418,9.4187 L38.1558,8.6297 L37.9558,8.4717 L38.1508,8.0047 L37.6668,7.3647 L36.8698,7.4667 L36.5588,8.2067 L36.7808,8.4987 L36.6768,9.2217 L37.0278,9.4967 L36.7858,9.6397 L36.8058,9.3877 L36.3708,9.0917 L36.4888,8.8997 L36.1968,8.3557 L36.3528,8.2727 L36.4068,6.9427 L35.2808,6.2297 L34.8438,6.4597 L34.4248,5.7987 L33.5168,5.8327 L33.3008,6.2377 L32.6618,5.8337 L31.4818,6.4527 L31.4368,7.5447 L30.9818,8.2827 L30.6538,8.4437 L30.6518,8.4157 L29.6108,7.8517 L29.4828,7.9317 L28.9488,7.5137 L28.2098,7.8077 L28.1778,8.0217 L27.5158,7.7767 L26.9318,8.2627 L26.4138,8.3307 L26.2078,7.8147 L25.4188,7.7007 L25.1438,8.0517 L25.0738,7.5527 L24.3688,7.2687 L23.7718,7.7387 L23.8788,8.4887 Z M24.0428,15.3757 L23.6678,15.8617 L23.9018,16.4287 L24.5098,16.5097 L24.8838,16.0237 L24.6518,15.4587 L24.0428,15.3757 Z M24.2988,14.5397 L24.1928,13.7887 L23.4888,13.5067 L22.8918,13.9747 L23.0008,14.7247 L23.7048,15.0077 L24.2988,14.5397 Z M20.4288,6.3937 L20.8028,5.9077 L20.5708,5.3417 L19.9638,5.2597 L19.5888,5.7447 L19.8218,6.3127 L20.4288,6.3937 Z M15.1598,5.6277 L15.2388,5.0757 L14.8008,4.7297 L14.2828,4.9377 L14.2028,5.4897 L14.6418,5.8347 L15.1598,5.6277 Z M17.3238,6.9547 L17.4378,6.1657 L16.8118,5.6747 L16.0718,5.9697 L15.9578,6.7577 L16.5838,7.2507 L17.3238,6.9547 Z M19.1448,8.7187 L19.5208,7.8057 L18.9208,7.0257 L17.9438,7.1547 L17.5678,8.0647 L18.1688,8.8467 L19.1448,8.7187 Z M26.5268,14.6147 L26.9038,13.7047 L26.3038,12.9237 L25.3278,13.0527 L24.9498,13.9637 L25.5508,14.7447 L26.5268,14.6147 Z M18.8128,12.4777 L18.2138,11.6977 L17.2958,11.8187 L17.0008,11.7757 L16.5068,12.4027 L16.8018,13.1427 L17.2168,13.2037 L17.4598,13.5177 L18.4378,13.3897 L18.8128,12.4777 Z M21.7998,18.3867 L21.9148,17.5977 L21.2888,17.1047 L20.5488,17.3987 L20.4358,18.1867 L21.0598,18.6807 L21.7998,18.3867 Z M21.6698,7.4277 L22.0348,7.9987 L21.9328,7.9917 L21.7008,8.3417 L21.5748,8.2647 L21.1068,8.5227 L21.0298,8.3777 L19.8158,8.3417 L19.1758,9.3757 L19.3728,9.7397 L18.7848,10.1217 L18.7848,10.1377 L18.7268,9.8427 L18.0468,9.6087 L17.5068,10.0817 L17.6448,10.7867 L18.3248,11.0177 L18.8098,10.5957 L18.8288,10.9637 L19.1748,11.1397 L18.8238,11.7097 L19.3978,12.7777 L20.3658,12.8077 L21.0198,13.2037 L21.1478,13.4617 L21.1168,13.4627 L20.6108,14.4337 L21.1988,15.3597 L21.2218,15.3587 L20.8338,15.4307 L20.5228,16.3107 L21.1298,17.0187 L22.0468,16.8497 L22.3578,15.9707 L21.8148,15.3337 L22.2928,15.3147 L22.7998,14.3427 L22.4388,13.7717 L22.5398,13.7787 L22.7708,13.4297 L22.8978,13.5047 L23.3638,13.2467 L23.4428,13.3917 L24.6558,13.4297 L25.2958,12.3957 L25.0988,12.0307 L25.6878,11.6487 L25.6868,11.6337 L25.7438,11.9297 L26.4248,12.1597 L26.9658,11.6887 L26.8278,10.9827 L26.1478,10.7507 L25.6618,11.1757 L25.6438,10.8057 L25.2978,10.6297 L25.6488,10.0597 L25.0748,8.9917 L24.1068,8.9627 L23.4528,8.5647 L23.3248,8.3077 L23.3538,8.3067 L23.8618,7.3357 L23.2748,6.4097 L23.2538,6.4097 L23.6388,6.3387 L23.9498,5.4587 L23.3428,4.7487 L22.4258,4.9197 L22.1138,5.8007 L22.6578,6.4347 L22.1798,6.4557 L21.6698,7.4277 Z M29.2408,6.2367 L29.3218,5.6307 L28.8358,5.2547 L28.2708,5.4897 L28.1888,6.0957 L28.6748,6.4707 L29.2408,6.2367 Z M29.5658,7.2207 L30.0508,7.8577 L30.8468,7.7577 L31.1568,7.0177 L30.6718,6.3797 L29.8758,6.4797 L29.5658,7.2207 Z M47.4408,15.6607 L47.4058,15.6547 L47.5798,15.9917 L46.8278,17.1687 L45.4328,17.1057 L45.3488,16.9417 L44.7638,17.2547 L44.6148,17.1617 L44.3248,17.5917 L44.1498,17.5777 L44.5958,18.3117 L44.0018,19.3907 L42.7708,19.4177 L42.1318,18.3667 L42.7248,17.2857 L42.7498,17.2857 L42.5738,16.9197 L41.7888,16.4307 L40.6288,16.3777 L39.9848,15.1397 L40.4188,14.4607 L39.9818,14.2257 L39.9678,13.7777 L39.3928,14.2577 L38.6718,13.9927 L38.6558,13.8967 L38.3888,14.0067 L37.9968,13.7047 L37.8908,13.8407 L37.2838,13.7597 L37.0518,13.1927 L37.4248,12.7067 L38.0328,12.7877 L38.1098,12.9737 L38.5528,12.7917 L38.8218,12.9997 L39.1308,12.7427 L39.8518,13.0077 L39.9628,13.6507 L39.9508,13.2787 L40.6548,12.8437 L40.4058,12.3657 L40.9798,11.4677 L40.7808,10.9687 L41.2238,10.4047 L41.6928,10.4727 L41.6168,9.8487 L42.2798,9.3537 L43.0398,9.6797 L43.1368,10.4997 L42.4768,10.9957 L42.0578,10.8147 L42.1998,11.1737 L42.1548,11.2317 L42.5528,11.2517 L42.6368,11.4127 L43.2208,11.1027 L43.3708,11.1957 L43.6628,10.7657 L43.8368,10.7787 L43.3918,10.0457 L43.9848,8.9657 L45.2158,8.9377 L45.8548,9.9907 L45.2638,11.0707 L45.2348,11.0707 L45.4118,11.4367 L46.1968,11.9267 L47.3568,11.9777 L48.0008,13.2187 L47.5678,13.8957 L48.0048,14.1307 L48.0348,15.0777 L47.7728,15.2417 L47.4408,15.6607 Z M27.8188,12.5277 L28.3878,12.2947 L28.4688,11.6867 L28.1128,11.4127 L28.0108,11.1607 L27.4028,11.0797 L27.0288,11.5647 L27.2618,12.1317 L27.3378,12.1417 L27.3358,12.1527 L27.8188,12.5277 Z M30.5888,11.0567 L30.1028,10.4167 L29.3068,10.5177 L28.9958,11.2587 L29.4828,11.8967 L30.2778,11.7967 L30.5888,11.0567 Z M38.6798,7.5757 L39.1658,7.9497 L39.7318,7.7167 L39.8138,7.1087 L39.3288,6.7347 L38.7598,6.9677 L38.6798,7.5757 Z M33.4188,14.7467 L33.6718,14.0407 L33.1868,13.4677 L32.4468,13.6007 L32.1958,14.3087 L32.6818,14.8817 L33.4188,14.7467 Z M32.6898,16.1097 L32.7488,15.6857 L32.4078,15.4247 L32.0098,15.5877 L31.9538,16.0127 L32.2938,16.2737 L32.6898,16.1097 Z M34.8028,2.4877 L34.8598,2.0617 L34.5198,1.8007 L34.1238,1.9637 L34.0648,2.3887 L34.4048,2.6507 L34.8028,2.4877 Z M34.9148,3.9487 L34.9958,3.3417 L34.5108,2.9677 L33.9428,3.1997 L33.8608,3.8077 L34.3468,4.1807 L34.9148,3.9487 Z M34.7008,5.6617 L34.9528,4.9547 L34.4678,4.3827 L33.7298,4.5167 L33.4758,5.2227 L33.9618,5.7957 L34.7008,5.6617 Z M30.9708,2.9697 L31.4628,2.3437 L31.1668,1.6027 L30.3788,1.4907 L29.8858,2.1167 L30.1808,2.8557 L30.9708,2.9697 Z M30.8058,5.3187 L31.7618,5.7327 L32.5988,5.1087 L32.4778,4.0737 L31.5208,3.6617 L30.6848,4.2837 L30.8058,5.3187 Z M36.4638,14.9787 L36.3418,13.9417 L35.3858,13.5297 L34.5478,14.1517 L34.6688,15.1887 L35.6278,15.5997 L36.4638,14.9787 Z M29.4008,15.9567 L29.1058,15.2167 L28.4968,15.1287 L28.5138,15.0127 L27.8878,14.5187 L27.1468,14.8157 L27.0338,15.6037 L27.6588,16.0977 L27.9288,15.9887 L28.1208,16.4687 L28.9088,16.5827 L29.4008,15.9567 Z M31.2248,14.1847 L31.1018,13.1487 L30.1458,12.7367 L29.3088,13.3587 L29.4308,14.3937 L30.3878,14.8067 L31.2248,14.1847 Z M39.8968,2.0137 L40.2408,1.5747 L40.0348,1.0567 L39.4818,0.9777 L39.1378,1.4157 L39.3438,1.9337 L39.8968,2.0137 Z M38.8308,4.1597 L39.3228,3.5337 L39.0278,2.7937 L38.2378,2.6807 L37.7468,3.3057 L38.0418,4.0467 L38.8308,4.1597 Z M37.0018,6.5257 L37.8378,5.9037 L37.7168,4.8677 L36.7598,4.4547 L35.9238,5.0777 L36.0438,6.1127 L37.0018,6.5257 Z M16.5998,44.3167 L16.9058,43.9187 L16.7138,43.4527 L16.2168,43.3867 L15.9098,43.7837 L16.1008,44.2497 L16.5998,44.3167 Z M17.0858,45.9557 L17.5938,45.5647 L17.5068,44.9297 L16.9158,44.6857 L16.4078,45.0777 L16.4938,45.7117 L17.0858,45.9557 Z M19.7728,52.2027 L19.4658,52.5987 L19.6568,53.0657 L20.1558,53.1327 L20.4628,52.7337 L20.2728,52.2677 L19.7728,52.2027 Z M13.7868,47.1967 L13.2878,47.1307 L12.9808,47.5277 L13.1718,47.9937 L13.6698,48.0597 L13.9778,47.6617 L13.7868,47.1967 Z M23.3908,48.9897 L23.1998,48.5247 L22.7008,48.4577 L22.3948,48.8547 L22.5848,49.3207 L23.0848,49.3887 L23.3908,48.9897 Z M15.0668,51.5397 L14.7608,51.9367 L14.9508,52.4017 L15.4498,52.4687 L15.7568,52.0707 L15.5648,51.6047 L15.0668,51.5397 Z M16.1488,50.1207 L15.6418,50.5127 L15.7288,51.1467 L16.3198,51.3897 L16.8278,50.9997 L16.7418,50.3647 L16.1488,50.1207 Z M21.6128,44.5827 L21.4208,44.1177 L20.9238,44.0507 L20.6168,44.4487 L20.8078,44.9127 L21.3058,44.9807 L21.6128,44.5827 Z M20.2238,46.3987 L20.7308,46.0077 L20.6458,45.3717 L20.0528,45.1287 L19.5458,45.5197 L19.6308,46.1537 L20.2238,46.3987 Z M18.5078,41.6377 L18.4158,42.2827 L18.9288,42.6877 L19.5358,42.4447 L19.6288,41.7977 L19.1158,41.3927 L18.5078,41.6377 Z M16.7478,54.0197 L16.6538,54.6667 L17.1688,55.0697 L17.7748,54.8277 L17.8688,54.1817 L17.3558,53.7777 L16.7478,54.0197 Z M18.6488,50.4657 L18.7588,50.5327 L19.1738,50.3067 L19.2398,50.4317 L20.2858,50.4667 L20.8408,49.5807 L20.6658,49.2517 L21.1778,48.9237 L21.1658,48.6617 L21.2598,49.1497 L21.8278,49.3487 L22.2848,48.9577 L22.1718,48.3627 L21.6038,48.1647 L21.1618,48.5457 L21.1458,48.2027 L20.8378,48.0437 L21.1488,47.5467 L20.6578,46.6217 L19.8118,46.5917 L19.2398,46.2417 L19.1208,46.0017 L19.1448,45.9997 L19.5848,45.1727 L19.0878,44.3787 L18.7518,44.3907 L19.3848,44.2777 L19.6498,43.5417 L19.1468,42.9427 L18.3748,43.0807 L18.1078,43.8157 L18.5968,44.3957 L18.1528,44.4117 L17.7138,45.2387 L18.0338,45.7507 L17.9288,45.7437 L17.7228,46.0537 L17.6138,45.9857 L17.1978,46.2117 L17.1328,46.0877 L16.0868,46.0497 L15.5318,46.9377 L15.7078,47.2667 L15.1938,47.5957 L15.2048,47.8567 L15.1138,47.3677 L14.5438,47.1687 L14.0878,47.5627 L14.1998,48.1537 L14.7688,48.3527 L15.2118,47.9727 L15.2268,48.3147 L15.5348,48.4747 L15.2248,48.9727 L15.7138,49.8957 L16.5608,49.9277 L17.1328,50.2757 L17.2518,50.5177 L17.2278,50.5177 L16.7878,51.3447 L17.2848,52.1387 L17.6208,52.1267 L16.9868,52.2407 L16.7208,52.9767 L17.2268,53.5757 L17.9978,53.4377 L18.2628,52.7007 L17.7748,52.1217 L18.2208,52.1057 L18.6598,51.2787 L18.3398,50.7667 L18.4428,50.7737 L18.6488,50.4657 Z M13.8718,44.8087 L13.9668,44.1627 L13.4518,43.7587 L12.8458,43.9997 L12.7528,44.6477 L13.2668,45.0517 L13.8718,44.8087 Z M15.4708,46.3537 L15.7938,45.5867 L15.2928,44.9237 L14.4668,45.0247 L14.1438,45.7917 L14.6448,46.4557 L15.4708,46.3537 Z M22.4288,54.6887 L22.3638,55.1417 L22.7238,55.4257 L23.1488,55.2547 L23.2138,54.8027 L22.8538,54.5187 L22.4288,54.6887 Z M22.6518,51.8317 L22.5868,52.2837 L22.9478,52.5657 L23.3718,52.3967 L23.4378,51.9437 L23.0778,51.6617 L22.6518,51.8317 Z M20.9018,50.1647 L20.5778,50.9307 L21.0788,51.5957 L21.9068,51.4927 L22.2288,50.7247 L21.7278,50.0607 L20.9018,50.1647 Z M10.3838,51.0317 L10.3178,51.4837 L10.6758,51.7657 L11.1018,51.5977 L11.1668,51.1427 L10.8088,50.8607 L10.3838,51.0317 Z M11.9218,50.1077 L11.8278,50.7547 L12.3408,51.1587 L12.9478,50.9167 L13.0408,50.2687 L12.5288,49.8647 L11.9218,50.1077 Z M14.6758,48.9937 L13.8508,49.0977 L13.5268,49.8647 L14.0278,50.5267 L14.8538,50.4247 L15.1778,49.6587 L14.6758,48.9937 Z M23.4238,45.6017 L23.3308,46.2487 L23.8448,46.6537 L24.4498,46.4107 L24.5438,45.7647 L24.0318,45.3597 L23.4238,45.6017 Z M22.5218,47.4217 L22.8468,46.6547 L22.3448,45.9907 L21.5188,46.0937 L21.1948,46.8597 L21.6968,47.5237 L22.5218,47.4217 Z M41.8028,8.7387 L42.1768,8.2527 L41.9438,7.6857 L41.3358,7.6047 L40.9628,8.0897 L41.1958,8.6577 L41.8028,8.7387 Z M46.2748,20.7007 L46.4358,20.8987 L47.1908,20.7787 L47.4628,20.0647 L46.9818,19.4727 L46.2278,19.5937 L46.2158,19.6237 L46.1828,19.6177 L45.8088,20.1027 L46.0418,20.6707 L46.2748,20.7007 Z M46.2708,17.6867 L45.5108,17.3617 L44.8498,17.8567 L44.9468,18.6777 L45.0428,18.7187 L44.9028,18.7767 L44.8238,19.3537 L45.2848,19.7107 L45.8238,19.4887 L45.9008,18.9107 L45.8658,18.8847 L46.3688,18.5077 L46.2708,17.6867 Z M50.0328,15.5677 L50.6398,15.6487 L51.0128,15.1647 L50.7798,14.5977 L50.1728,14.5167 L49.7998,15.0017 L50.0328,15.5677 Z M48.0818,14.5937 L48.2128,15.3487 L48.9358,15.6147 L49.5248,15.1207 L49.3928,14.3637 L48.6708,14.0997 L48.0818,14.5937 Z M40.2358,19.8477 L40.6118,19.3617 L40.3768,18.7957 L39.7708,18.7137 L39.3958,19.1987 L39.6288,19.7667 L40.2358,19.8477 Z M42.0938,17.9047 L41.9968,17.0847 L41.2348,16.7597 L40.5728,17.2547 L40.6728,18.0747 L41.4318,18.3987 L42.0938,17.9047 Z M48.2178,9.6437 L48.5918,9.1577 L48.3588,8.5927 L47.7508,8.5107 L47.3768,8.9957 L47.6098,9.5627 L48.2178,9.6437 Z M46.7508,11.5977 L47.4138,11.1027 L47.3148,10.2827 L46.5548,9.9577 L45.8948,10.4527 L45.9928,11.2727 L46.7508,11.5977 Z M45.8798,6.3487 L45.9938,5.5597 L45.3678,5.0687 L44.6278,5.3647 L44.5138,6.1527 L45.1388,6.6457 L45.8798,6.3487 Z M45.5718,8.7097 L45.9238,7.7767 L45.2928,7.0037 L44.3068,7.1637 L43.9528,8.0977 L44.5848,8.8717 L45.5718,8.7097 Z M43.6808,21.1917 L44.0328,20.2577 L43.4018,19.4847 L42.4158,19.6467 L42.0628,20.5817 L42.6948,21.3527 L43.6808,21.1917 Z M38.7598,10.2967 L38.6548,10.3817 L38.6718,10.4957 L38.5418,10.7937 L38.7678,11.1027 L38.7978,11.2877 L38.9468,11.3457 L39.1758,11.6597 L39.6338,11.6097 L39.6528,11.6177 L39.6668,11.6057 L40.2428,11.5437 L40.6758,10.5597 L40.0418,9.6937 L38.9738,9.8107 L38.7598,10.2967 Z M36.7198,17.7657 L36.7688,17.7727 L37.2618,17.1467 L36.9658,16.4077 L36.1778,16.2927 L35.9438,16.5897 L35.5298,16.7547 L35.4168,17.5437 L36.0428,18.0367 L36.7198,17.7657 Z M39.4028,17.0907 L39.8358,16.1077 L39.2018,15.2417 L38.1348,15.3577 L37.7018,16.3417 L38.3358,17.2067 L39.4028,17.0907 Z M52.4568,11.6017 L52.5708,10.8127 L51.9428,10.3197 L51.2048,10.6157 L51.0898,11.4047 L51.7168,11.8977 L52.4568,11.6017 Z M48.7858,13.1147 L49.8538,12.9987 L50.2858,12.0157 L49.6498,11.1487 L48.5828,11.2657 L48.1498,12.2487 L48.7858,13.1147 Z M51.2408,16.2187 L51.1628,16.7967 L51.6248,17.1517 L52.1648,16.9307 L52.2418,16.3527 L51.7788,15.9977 L51.2408,16.2187 Z M50.9818,17.6747 L50.7098,18.3887 L51.1908,18.9807 L51.9458,18.8597 L52.2188,18.1457 L51.7368,17.5537 L50.9818,17.6747 Z M43.9468,25.5467 L43.8678,26.1237 L44.3298,26.4797 L44.8678,26.2587 L44.9468,25.6817 L44.4848,25.3247 L43.9468,25.5467 Z M46.4738,25.8557 L46.7458,25.1417 L46.2658,24.5497 L45.5108,24.6707 L45.2378,25.3837 L45.7198,25.9757 L46.4738,25.8557 Z M57.5478,21.1427 L57.6258,20.5657 L57.1648,20.2107 L56.6268,20.4317 L56.5488,21.0087 L57.0108,21.3637 L57.5478,21.1427 Z M57.7178,15.0747 L58.0448,14.6597 L57.8478,14.1677 L57.3238,14.0917 L56.9958,14.5077 L57.1918,15.0007 L57.7178,15.0747 Z M56.5738,17.1047 L57.0428,16.5097 L56.7598,15.8067 L56.0118,15.6997 L55.5418,16.2937 L55.8228,16.9977 L56.5738,17.1047 Z M55.0518,19.1197 L55.8288,18.5017 L55.6818,17.5187 L54.7578,17.1557 L53.9818,17.7737 L54.1278,18.7557 L55.0518,19.1197 Z M44.7348,30.8807 L45.4838,30.9887 L45.8298,30.5507 L46.8018,30.4177 L47.2148,29.4057 L47.0928,29.2487 L47.5118,28.9137 L47.3658,27.9317 L46.4418,27.5687 L45.6658,28.1867 L45.7348,28.6517 L45.4618,28.6887 L45.0858,29.6067 L44.9218,29.5837 L44.4538,30.1787 L44.7348,30.8807 Z M44.0118,21.3647 L43.2358,21.9827 L43.2418,22.0217 L42.8478,21.7117 L42.5898,21.8137 L42.4328,21.4197 L41.6818,21.3107 L41.2158,21.9057 L41.4948,22.6087 L42.0088,22.6817 L41.9928,22.7957 L42.6178,23.2887 L43.3588,22.9927 L43.3738,22.8967 L43.3828,22.9657 L44.3068,23.3277 L45.0838,22.7107 L44.9358,21.7277 L44.0118,21.3647 Z M59.8128,25.3767 L60.2798,24.7837 L59.9998,24.0817 L59.2508,23.9727 L58.7818,24.5667 L59.0628,25.2687 L59.8128,25.3767 Z M56.4118,23.9777 L56.5598,24.9617 L57.4818,25.3237 L58.2588,24.7067 L58.1118,23.7227 L57.1888,23.3607 L56.4118,23.9777 Z M57.6968,28.2077 L57.4638,27.6397 L56.8558,27.5577 L56.5958,27.8957 L56.6708,27.3357 L56.2098,26.9777 L55.6708,27.1997 L55.5928,27.7777 L56.0558,28.1337 L56.5788,27.9187 L56.4818,28.0457 L56.7148,28.6107 L57.3218,28.6927 L57.6968,28.2077 Z M55.3978,42.3347 L55.4998,42.2037 L55.8658,42.4847 L56.4318,42.2517 L56.5138,41.6437 L56.0288,41.2687 L55.6058,41.4447 L55.5388,41.2817 L54.9328,41.1997 L54.5578,41.6857 L54.7908,42.2527 L55.3978,42.3347 Z M42.8738,33.6347 L43.1358,33.2947 L42.9728,32.8977 L42.5468,32.8397 L42.2848,33.1807 L42.4478,33.5767 L42.8738,33.6347 Z M44.5448,33.8477 L44.9198,33.3627 L44.6878,32.7967 L44.0788,32.7137 L43.7048,33.1987 L43.9388,33.7647 L44.5448,33.8477 Z M47.0638,33.8687 L46.9408,33.0357 L46.1588,32.7257 L45.4988,33.2477 L45.6228,34.0807 L46.4038,34.3907 L47.0638,33.8687 Z M59.4568,35.4207 L59.6898,35.9877 L60.2978,36.0687 L60.6718,35.5837 L60.4388,35.0167 L59.8308,34.9347 L59.4568,35.4207 Z M62.3178,29.8337 L61.5788,30.1287 L61.4628,30.9157 L62.0888,31.4107 L62.8288,31.1137 L62.9438,30.3257 L62.3178,29.8337 Z M58.3228,31.7107 L58.9928,32.5767 L60.0758,32.4297 L60.4918,31.4167 L59.8208,30.5517 L58.7378,30.6987 L58.3228,31.7107 Z M43.3048,37.8647 L42.6778,37.3717 L41.9378,37.6687 L41.8238,38.4567 L42.4488,38.9497 L43.1898,38.6527 L43.3048,37.8647 Z M43.4858,27.4477 L43.3718,28.2357 L43.9978,28.7287 L44.7388,28.4327 L44.8518,27.6447 L44.2258,27.1517 L43.4858,27.4477 Z M59.5128,40.1457 L59.2238,40.8537 L59.6928,41.4587 L60.4508,41.3557 L60.7418,40.6467 L60.2728,40.0427 L59.5128,40.1457 Z M57.5748,38.3637 L57.1628,39.3757 L57.8328,40.2417 L58.9158,40.0937 L59.3298,39.0817 L58.6608,38.2157 L57.5748,38.3637 Z M52.9208,42.8497 L53.4678,43.5687 L54.3638,43.4557 L54.7138,42.6227 L54.1658,41.9037 L53.2698,42.0177 L52.9208,42.8497 Z M39.3928,49.1267 L39.4748,48.5187 L38.9898,48.1437 L38.4218,48.3787 L38.3408,48.9847 L38.8268,49.3607 L39.3928,49.1267 Z M41.9338,47.7777 L41.3878,47.0587 L40.4918,47.1737 L40.1428,48.0067 L40.6888,48.7237 L41.5848,48.6117 L41.9338,47.7777 Z M45.5308,54.4567 L45.4488,55.0637 L45.9348,55.4357 L46.5008,55.2027 L46.5828,54.5977 L46.0968,54.2227 L45.5308,54.4567 Z M45.8658,51.9417 L45.5708,52.7297 L46.1058,53.3787 L46.9348,53.2417 L47.2308,52.4527 L46.6968,51.8047 L45.8658,51.9417 Z M39.7048,39.2807 L39.6238,39.8887 L40.1098,40.2637 L40.6768,40.0297 L40.7568,39.4217 L40.2718,39.0477 L39.7048,39.2807 Z M41.1048,41.1837 L41.6508,41.9027 L42.5468,41.7887 L42.8968,40.9557 L42.3488,40.2377 L41.4538,40.3507 L41.1048,41.1837 Z M54.1548,50.5797 L54.0678,51.2197 L54.5778,51.6117 L55.1728,51.3677 L55.2588,50.7297 L54.7498,50.3357 L54.1548,50.5797 Z M52.2908,48.8267 L51.9368,49.6817 L52.5018,50.4147 L53.4198,50.2937 L53.7718,49.4357 L53.2058,48.7037 L52.2908,48.8267 Z M59.1798,46.4377 L58.6868,47.0627 L58.9828,47.8037 L59.7708,47.9167 L60.2628,47.2907 L59.9678,46.5517 L59.1798,46.4377 Z M56.9048,45.6307 L56.0518,46.3157 L56.2218,47.3967 L57.2408,47.7917 L58.0928,47.1047 L57.9248,46.0247 L56.9048,45.6307 Z M49.2968,39.3997 L49.1178,39.5417 L49.2908,39.8157 L48.7888,40.7647 L49.0028,41.1727 L49.4688,40.9557 L49.7518,41.1547 L49.7668,39.8307 L50.0608,39.6647 L49.9678,39.5077 L50.6858,38.2517 L50.7068,38.2517 L50.6368,38.0987 L49.7508,38.6207 L49.1418,38.2787 L49.0508,38.5197 L49.1738,38.5677 L49.2968,39.3997 Z M48.1888,37.3427 L48.7508,37.2497 L48.7858,37.2937 L48.7818,36.9847 L49.0618,36.8187 L48.7688,36.7947 L48.7588,36.7717 L48.6288,36.8257 L48.5308,36.7497 L48.1888,37.3427 Z M55.7208,45.6407 L55.7608,47.0617 L54.5498,47.8067 L53.3208,47.1437 L52.0778,47.7847 L52.2828,48.1437 L51.6638,49.2177 L50.4258,49.2187 L50.2098,48.8437 L50.1708,49.2597 L49.8458,49.4097 L50.9938,50.0977 L50.9708,51.6877 L49.5818,52.4637 L48.2138,51.6477 L48.2368,50.0567 L48.2488,50.0517 L47.8078,49.7397 L47.5458,50.1537 L47.3848,50.1487 L47.7508,50.7307 L47.2398,51.6977 L46.1478,51.7397 L45.5648,50.8147 L46.0658,49.8647 L45.6598,49.0937 L44.8868,49.4297 L43.3298,48.2767 L43.3508,48.0947 L42.5528,48.0917 L41.9428,47.0277 L42.4118,46.2257 L41.1368,45.4057 L41.1478,45.1937 L40.3868,45.6627 L39.1348,44.9867 L39.0928,43.5647 L40.3058,42.8197 L41.5348,43.4827 L42.7908,42.8397 L42.5848,42.4787 L43.2018,41.4217 L44.4268,41.4277 L44.6428,41.8067 L44.6828,41.3687 L45.0088,41.2187 L43.8598,40.5317 L43.8848,38.9407 L45.2748,38.1657 L46.6408,38.9797 L46.6178,40.5727 L46.6088,40.5787 L46.7128,40.6527 L46.6818,40.5757 L47.0558,40.0897 L47.2398,40.1147 L47.1048,39.8997 L47.6148,38.9307 L47.7538,38.9257 L47.7308,38.7797 L47.9668,38.5937 L47.6238,38.1747 L47.8728,37.5137 L46.6638,37.5117 L45.9498,36.2747 L46.6638,35.0387 L48.0898,35.0387 L48.1008,35.0567 L48.2068,34.9037 L47.3038,34.3937 L47.2938,33.2967 L48.2398,32.7367 L48.5248,32.8967 L48.3978,32.6297 L48.5568,32.4027 L47.4378,32.4027 L46.7238,31.1647 L47.4378,29.9287 L48.8648,29.9297 L49.5788,31.1657 L49.5678,31.1837 L49.7538,31.1987 L49.7478,30.6777 L49.7148,30.6907 L49.2548,30.3347 L49.3318,29.7587 L49.7808,29.5727 L49.2968,29.3807 L49.1738,28.5487 L49.3188,28.4337 L49.5498,27.8287 L50.3038,27.7077 L50.7858,28.3017 L50.6598,28.6297 L50.7388,29.1697 L50.0788,29.6917 L50.0618,29.6847 L50.2748,29.8497 L50.6888,29.6037 L51.6478,30.1427 L51.6488,30.4687 L51.8178,30.2277 L52.0938,30.2517 L51.5348,29.2807 L52.0908,28.3167 L52.0738,28.1477 L52.8308,27.6027 L52.4538,27.1167 L51.8428,27.4307 L51.1038,26.9547 L50.7728,27.5587 L49.8028,27.5797 L49.6468,27.3207 L49.4458,27.5817 L48.9398,27.5137 L47.9868,28.0757 L46.8908,27.4567 L46.8768,26.1957 L47.9618,25.5537 L47.9818,25.5637 L47.9898,25.4557 L47.1098,25.4727 L46.6068,24.6427 L47.0758,23.7937 L47.3208,23.7887 L47.1578,23.6767 L47.1748,23.4637 L46.3698,23.9387 L45.2698,23.3207 L45.2558,22.0597 L46.3428,21.4187 L47.4408,22.0377 L47.4408,22.0597 L47.5418,22.0127 L47.0858,21.2597 L47.5528,20.4087 L48.5228,20.3887 L48.5928,20.5067 L48.6038,20.3937 L48.7868,20.3077 L47.9058,19.7987 L47.9078,18.6127 L47.3098,17.7967 L47.3568,17.6887 L47.3368,17.6807 L47.2118,16.7517 L47.9538,16.1787 L48.8198,16.5337 L48.8508,16.7517 L49.4458,17.5627 L49.2088,18.0987 L50.0308,18.5747 L50.0298,18.9027 L50.6828,18.6417 L51.2878,19.1187 L51.6928,19.1097 L52.1948,19.9397 L52.0778,20.1537 L52.2528,20.0697 L52.4298,20.1907 L52.4208,19.2557 L53.5058,18.6127 L54.6048,19.2317 L54.6168,20.4927 L53.5328,21.1347 L53.5128,21.1237 L53.5048,21.2337 L54.3838,21.2167 L54.8868,22.0457 L54.4188,22.8957 L54.1768,22.9007 L54.3368,23.0117 L54.3198,23.2247 L55.1268,22.7497 L56.2238,23.3677 L56.2378,24.6287 L55.1518,25.2697 L54.1948,24.7297 L54.0268,24.7987 L54.4098,25.4297 L54.0498,26.0837 L54.1758,26.2467 L54.3038,25.9107 L55.0578,25.7897 L55.5408,26.3827 L55.2668,27.0967 L54.5138,27.2177 L54.2868,26.9367 L54.0198,27.5917 L53.3658,27.6797 L53.9778,27.9547 L54.0518,28.6937 L54.3898,29.2817 L53.6748,30.5177 L53.6568,30.5177 L53.7358,30.6867 L53.8548,30.6167 L53.9538,30.4907 L54.0438,30.5047 L54.6278,30.1597 L55.5848,30.6997 L55.5958,31.7977 L55.3148,31.9647 L55.6078,31.9877 L55.7258,32.2387 L56.2878,31.2687 L57.7148,31.2687 L58.4278,32.5077 L57.7138,33.7427 L56.2868,33.7427 L56.2758,33.7247 L56.1688,33.8797 L57.0718,34.3877 L57.0828,35.4857 L56.1358,36.0447 L55.8538,35.8857 L55.9788,36.1517 L55.8208,36.3797 L56.9398,36.3797 L57.6538,37.6177 L56.9398,38.8527 L55.5128,38.8527 L54.7988,37.6147 L54.8088,37.5977 L54.6228,37.5827 L54.6338,38.6187 L53.6878,39.1777 L53.6398,39.1507 L53.1628,39.5117 L52.7768,39.3477 L52.8618,39.4927 L52.5528,40.0317 L52.5378,41.4697 L52.0288,41.7577 L52.1388,41.8967 L51.8818,42.5367 L52.3038,42.5387 L52.9128,43.6017 L52.4448,44.4017 L53.7178,45.2237 L53.7068,45.4347 L54.4708,44.9657 L55.7208,45.6407 Z M35.8118,42.8067 L35.0228,42.6927 L34.5308,43.3187 L34.8268,44.0577 L35.6158,44.1727 L36.1068,43.5467 L35.8118,42.8067 Z M37.6548,42.8037 L36.8028,43.4897 L36.9708,44.5697 L37.9898,44.9647 L38.8418,44.2787 L38.6748,43.1977 L37.6548,42.8037 Z M42.7908,48.4717 L41.5238,49.0907 L41.4268,50.4977 L42.5958,51.2847 L43.8638,50.6657 L43.9598,49.2597 L42.7908,48.4717 Z M44.4188,38.0537 L44.5558,38.2307 L45.6408,38.0837 L46.0528,37.0707 L45.3848,36.2057 L45.0468,36.2517 L44.0258,35.8117 L43.0838,36.5127 L43.2208,37.6797 L44.2988,38.1427 L44.4188,38.0537 Z M51.6228,55.9497 L51.1298,56.5757 L51.4258,57.3147 L52.2138,57.4297 L52.7068,56.8047 L52.4108,56.0627 L51.6228,55.9497 Z M51.7708,54.1157 L50.8288,54.8167 L49.7508,54.3527 L49.6148,53.1857 L50.5568,52.4857 L51.6338,52.9507 L51.7708,54.1157 Z" id="Fill-2780"></path>
                <path d="M84.809,33.166 L88.63,33.166 L88.63,27.967 L84.809,27.967 L84.809,33.166 Z M91.223,37.935 L89.747,39.412 L84.809,39.412 L84.809,33.875 L88.63,33.875 L88.63,35.189 L91.519,35.189 L91.525,27.258 L91.519,27.258 L91.519,27.253 L91.522,27.253 L90.076,26.023 L88.63,27.253 L88.63,27.258 L84.809,27.258 L84.808,22.702 L92.36,22.702 L92.36,21.993 L90.876,20.516 L89.4,21.993 L84.808,21.993 L84.808,21.989 L84.809,21.989 L83.329,20.759 L81.85,21.989 L81.851,40.117 L81.85,40.117 L83.329,41.346 L84.806,40.12 L92.706,40.12 L92.706,39.412 L91.223,37.935 Z" id="Fill-2781"></path>
                <path d="M81.409,39.2524 C80.736,36.8274 79.588,34.8534 77.2,33.8054 C77.393,33.0344 77.548,32.2204 77.667,31.3644 L80.949,31.3644 L80.949,30.6554 L79.467,29.1794 L77.99,30.6554 L77.757,30.6554 C77.956,28.9124 78.023,27.0044 77.997,24.9364 L80.949,24.9364 L80.949,24.2274 L79.467,22.7504 L77.99,24.2274 L74.83,24.2274 C75.449,23.0244 75.901,21.6744 76.195,20.1734 L73.137,19.7074 C72.746,23.2574 71.963,26.1264 69.258,29.4314 C71.564,28.4034 73.255,26.8934 74.436,24.9364 L75.035,24.9364 C75.068,27.0824 75.079,28.9554 74.981,30.6554 L70.726,30.6554 L70.728,31.3644 L74.933,31.3644 C74.623,35.3314 73.616,38.3984 70.69,41.9724 C74.079,40.4614 76.011,37.9174 77.028,34.4294 C78.165,36.1824 78.355,37.9234 78.453,39.8874 L81.409,39.2524 Z" id="Fill-2782"></path>
                <polygon id="Fill-2783" points="112.3548 23.9272 119.3878 23.9272 119.3878 23.2182 117.9058 21.7402 116.4298 23.2182 112.6468 23.2182 113.7328 20.5652 113.7358 20.5662 112.7788 18.8962 110.9618 19.5312 109.4498 23.2182 107.4598 23.2182 107.4618 23.9272 109.1588 23.9272 106.4618 30.6732 109.1648 31.7072 109.4978 30.8962 111.5228 30.8962 111.5228 34.4722 107.2558 34.4722 107.2578 35.1812 111.5228 35.1812 111.5228 41.2902 114.4818 41.2902 114.4818 35.1812 119.5628 35.1812 119.5628 34.4722 118.0808 32.9952 116.6038 34.4722 114.4818 34.4722 114.4818 30.8962 119.5628 30.8962 119.5628 30.1872 118.0808 28.7102 116.6038 30.1872 114.4818 30.1872 114.4818 27.0982 114.4838 27.0982 113.0038 25.8682 111.5228 27.0982 111.5228 30.1872 109.7888 30.1872"></polygon>
                <path d="M106.9979,21.2329 L105.5159,19.7549 L104.0389,21.2329 L101.4209,21.2329 L101.4209,21.2119 L101.4219,21.2119 L99.9419,19.9829 L98.4619,21.2119 L98.4619,41.2579 L101.4209,41.2579 L101.4209,21.9409 L103.7419,21.9409 L102.3689,28.1729 L102.7259,28.5639 C106.1199,32.3859 103.7499,34.2369 101.5149,33.9039 L103.2179,37.0039 C108.6949,36.1729 107.1149,30.0409 103.1949,27.8379 L106.9979,21.9409 L106.9979,21.2329 Z" id="Fill-2784"></path>
                <polyline id="Fill-2785" points="125.5579 21.8315 141.9819 21.8315 141.9819 21.0965 140.4439 19.5645 138.9139 21.0965 125.5579 21.0965"></polyline>
                <path d="M144.7723,27.2095 L144.7723,26.4745 L143.2353,24.9425 L141.7053,26.4745 L122.7673,26.4745 L122.7673,27.2095 L129.4053,27.2095 C129.5133,39.0435 122.7883,41.0265 122.7883,41.0265 C132.6243,40.3855 132.6743,28.4265 132.6533,27.2095 L134.4093,27.2095 L134.3843,37.5225 C134.3843,37.5225 134.3293,40.6105 137.2073,40.7755 L137.2073,40.7765 L137.2133,40.7765 C137.2223,40.7765 137.2303,40.7775 137.2373,40.7785 L137.2423,40.7765 L141.3563,40.7725 L141.9213,40.7925 L141.9423,40.7715 L141.9883,40.7715 L144.5743,38.1755 L144.3913,36.1885 L142.4043,36.0055 L140.7003,37.7095 L138.7723,37.7095 C137.6833,37.6255 137.5123,36.5095 137.4903,36.3215 C137.4753,34.0895 137.4953,27.9445 137.4983,27.2095 L144.7723,27.2095 Z" id="Fill-2786"></path>
                <polygon id="Fill-2787" points="153.243 29.0474 151.606 28.1054 149.967 29.0524 149.968 30.9434 151.609 31.8904 153.243 30.9434"></polygon>
            </g>
        </g>
    </g>
</svg>