<?xml version="1.0" encoding="UTF-8"?>
<svg width="12px" height="11px" viewBox="0 0 12 11" version="1.1" xmlns="http://www.w3.org/2000/svg" xmlns:xlink="http://www.w3.org/1999/xlink">
    <title>12.icon1</title>
    <g id="0.2.4" stroke="none" stroke-width="1" fill="none" fill-rule="evenodd">
        <g id="12.数据节点管理" transform="translate(-937.000000, -172.000000)" fill-rule="nonzero" stroke="#CACFE5" stroke-width="1.275">
            <g id="编组" transform="translate(929.000000, 160.000000)">
                <g transform="translate(2.000000, 6.000000)" id="2.icon1">
                    <g id="搜索-(1)" transform="translate(7.500000, 7.500000)">
                        <path d="M8.64355699,8.80965993 C8.5588511,8.80965993 8.47414522,8.78848346 8.41061581,8.72495404 L6.61061581,6.92495404 C6.48355699,6.79789522 6.48355699,6.60730699 6.61061581,6.48024816 C6.73767463,6.35318934 6.92826287,6.35318934 7.05532169,6.48024816 L8.85532169,8.25907169 C8.98238051,8.38613051 8.98238051,8.57671875 8.85532169,8.70377757 C8.81296875,8.76730699 8.72826287,8.80965993 8.64355699,8.80965993 L8.64355699,8.80965993 Z" id="路径"></path>
                        <path d="M4.09061581,8.1108364 C1.84590993,8.1108364 0.00355698529,6.28965993 0.00355698529,4.04495404 C0.00355698529,1.80024816 1.84590993,0.000248161765 4.09061581,0.000248161765 C6.33532169,0.000248161765 8.17767463,1.82142463 8.17767463,4.06613051 C8.17767463,6.3108364 6.35649816,8.1108364 4.09061581,8.1108364 Z M4.09061581,0.635542279 C2.18473346,0.635542279 0.638851103,2.18142463 0.638851103,4.06613051 C0.638851103,5.9508364 2.18473346,7.49671875 4.09061581,7.49671875 C5.99649816,7.49671875 7.54238051,5.9508364 7.54238051,4.06613051 C7.54238051,2.18142463 5.99649816,0.635542279 4.09061581,0.635542279 Z" id="形状"></path>
                    </g>
                </g>
            </g>
        </g>
    </g>
</svg>