<?xml version="1.0" encoding="UTF-8"?>
<svg width="26px" height="26px" viewBox="0 0 26 26" version="1.1" xmlns="http://www.w3.org/2000/svg" xmlns:xlink="http://www.w3.org/1999/xlink">
    <title>2.icon_cn</title>
    <g id="0.2.4" stroke="none" stroke-width="1" fill="none" fill-rule="evenodd">
        <g id="12.数据节点管理" transform="translate(-1184.000000, -17.000000)" fill="#FFFFFF" fill-rule="nonzero">
            <g id="2.icon_cn" transform="translate(1184.000000, 17.000000)">
                <path d="M8.37120743,13.6925234 L12.3662015,13.6925234 L12.3662015,10.0207115 L8.37120743,10.0207115 L8.37120743,13.6925234 Z M14.09704,13.6925234 L18.1077644,13.6925234 L18.1077644,10.0207115 L14.09704,10.0207115 L14.09704,13.6925234 Z" id="形状"></path>
                <path d="M13,0 C5.8205584,0 2.29277344e-05,5.82016858 2.29277344e-05,12.9999771 C2.29277344e-05,20.1794645 5.8205584,26 13,26 C20.1798085,26 25.9999312,20.1794645 25.9999312,12.9999771 C25.9999312,5.82016858 20.1798085,0 13,0 Z M19.7908617,15.328338 L14.0976362,15.328338 L14.0976362,20.684944 L12.3661557,20.684944 L12.3661557,15.328338 L6.68879811,15.328338 L6.68879811,8.38494279 L12.3662015,8.38494279 L12.3662015,5.64181531 L14.0976821,5.64181531 L14.0976821,8.38393385 L19.7908617,8.38393385 L19.7908617,15.328338 L19.7908617,15.328338 Z" id="形状"></path>
            </g>
        </g>
    </g>
</svg>