<?xml version="1.0" encoding="UTF-8"?>
<svg width="45px" height="50px" viewBox="0 0 45 50" version="1.1" xmlns="http://www.w3.org/2000/svg" xmlns:xlink="http://www.w3.org/1999/xlink">
    <title>2.icon_Bandwidth</title>
    <g id="1.0" stroke="none" stroke-width="1" fill="none" fill-rule="evenodd">
        <g id="3.任务概览" transform="translate(-1064.000000, -118.000000)" fill="#FFA505" fill-rule="nonzero">
            <g id="编组" transform="translate(376.000000, 90.000000)">
                <g id="2.icon_Bandwidth" transform="translate(688.000000, 28.000000)">
                    <path d="M7.54116766,33.6960844 L39.3475744,33.6960844 C42.4474878,33.6960844 44.9604697,36.2090662 44.9604697,39.3089797 L44.9604697,44.29822 C44.9604697,47.3981334 42.4474878,49.9111153 39.3475744,49.9111153 L5.67020256,49.9111153 C2.57028911,49.9111153 0.0573072605,47.3981334 0.0573072605,44.29822 L0.0573072605,39.3089797 C0.0573072605,36.8651174 1.61922249,34.7859749 3.79923746,34.0154847 L3.79923746,28.7068441 L7.54116766,28.7068441 L7.54116766,33.6960844 Z M5.67020256,37.4380146 C4.63691757,37.4380146 3.79923746,38.2756947 3.79923746,39.3089797 L3.79923746,44.29822 C3.79923746,45.331505 4.63691757,46.1691851 5.67020256,46.1691851 L39.3475744,46.1691851 C40.3808594,46.1691851 41.2185395,45.331505 41.2185395,44.29822 L41.2185395,39.3089797 C41.2185395,38.2756947 40.3808594,37.4380146 39.3475744,37.4380146 L5.67020256,37.4380146 Z M33.7346791,39.9326347 L37.4766093,39.9326347 L37.4766093,43.6745649 L33.7346791,43.6745649 L33.7346791,39.9326347 Z M0.448750936,10.0288291 C5.82136508,3.89326815 13.7126918,0.0187125749 22.5088885,0.0187125749 C31.3050851,0.0187125749 39.1963534,3.89326815 44.569026,10.0288291 L41.791729,12.5374251 C37.1041121,7.15931418 30.2033823,3.76064278 22.5088885,3.76064278 C14.8143362,3.76064278 7.91366486,7.15931418 3.2260479,12.5374251 L0.448750936,10.0287706 L0.448750936,10.0288291 Z M8.78110966,17.5549097 C12.0981475,13.6917571 17.0177419,11.2445032 22.5088885,11.2445032 C28.0000351,11.2445032 32.919688,13.6916986 36.2366088,17.5549097 L33.4585516,20.064149 C30.8273882,16.9580955 26.8983907,14.9864334 22.5088885,14.9864334 C18.1193862,14.9864334 14.1903888,16.9580955 11.5592253,20.064149 L8.78110966,17.5549097 L8.78110966,17.5549097 Z M17.1190821,25.0859609 C18.3753392,23.492936 20.322675,22.4702938 22.5088885,22.4702938 C24.695102,22.4702938 26.6424378,23.492936 27.8986948,25.0859609 L25.1078312,27.6067202 C24.5492024,26.7662332 23.59375,26.212224 22.5088885,26.212224 C21.4240269,26.212224 20.4685746,26.7662332 19.9099457,27.6067202 L17.1190821,25.0859609 Z" id="形状"></path>
                </g>
            </g>
        </g>
    </g>
</svg>