<?xml version="1.0" encoding="UTF-8"?>
<svg width="40px" height="40px" viewBox="0 0 40 40" version="1.1" xmlns="http://www.w3.org/2000/svg" xmlns:xlink="http://www.w3.org/1999/xlink">
    <title>节点管理_1</title>
    <g id="节点管理_1" stroke="none" stroke-width="1" fill="none" fill-rule="evenodd">
        <g transform="translate(1.000000, 0.000000)" fill="#000000" fill-rule="nonzero" id="形状">
            <path d="M34.0506629,21.5848867 L36.9987235,21.5848867 C37.0016294,15.0895847 33.6149739,9.07929497 28.0996686,5.79175804 L26.6053977,8.37262427 C31.1988636,11.1165936 34.0506629,16.1791849 34.0506629,21.5848867 Z M11.6824811,8.17434211 L10.2556818,5.55464181 C4.51330996,8.78113014 0.947915883,14.9194238 0.944602273,21.5848867 L3.89266098,21.5848867 C3.89567014,16.0086727 6.87851098,10.8735708 11.6824811,8.17434211 Z M18.9725616,36.9005848 C16.0805439,36.9045228 13.2488678,36.0605632 10.8174953,34.4700292 L9.22111742,36.9869335 C14.9297512,40.7120798 22.2133305,40.8693582 28.0726799,37.3940058 L26.5838068,34.8103984 C24.2743831,36.1810218 21.6473374,36.9024563 18.9725616,36.9005848 L18.9725616,36.9005848 Z"></path>
            <path d="M32.9940578,25.1324927 C31.8561377,25.1314477 30.7535322,25.5337827 29.8764205,26.2701023 L26.8487453,24.4947003 C27.1835284,23.5621301 27.3543555,22.5770588 27.3534328,21.5844298 C27.3534328,17.4017727 24.36759,13.9135599 20.4470407,13.2044956 L20.4470407,9.77704678 C22.7583591,9.03769523 24.1927948,6.69600602 23.8245556,4.26331756 C23.4563164,1.8306291 21.3955716,0.0347500087 18.9723366,0.0347500087 C16.5491017,0.0347500087 14.4883569,1.8306291 14.1201177,4.26331756 C13.7518785,6.69600602 15.1863142,9.03769523 17.4976326,9.77704678 L17.4976326,13.2035819 C13.5770833,13.9131031 10.5912405,17.4008589 10.5912405,21.5835161 C10.5903364,22.5761434 10.761163,23.5612114 11.095928,24.4937865 L8.06915246,26.2701023 C6.19732419,24.7062467 3.48209908,24.763413 1.6756824,26.4047104 C-0.130734288,28.0460078 -0.487989905,30.7804757 0.834461871,32.8434909 C2.15691365,34.9065062 4.76348839,35.68096 6.97209573,34.6670771 C9.18070308,33.6531943 10.3306833,31.1542571 9.67992424,28.7828947 L12.5798532,27.0819627 C14.1695273,28.9941972 16.5082843,30.0974418 18.9723366,30.0974418 C21.436389,30.0974418 23.775146,28.9941972 25.3648201,27.0819627 L28.2651989,28.7828947 C27.7007852,30.8450038 28.4951152,33.0429395 30.238992,34.2444415 C31.9828689,35.4459435 34.2871835,35.3829222 35.9648749,34.0878427 C37.6425662,32.7927633 38.319293,30.5545953 37.6464414,28.5263245 C36.9735898,26.4980538 35.1012924,25.1322458 32.9940578,25.1324927 L32.9940578,25.1324927 Z M4.95106534,32.1112025 C3.86805586,32.1109502 2.99025816,31.2191008 2.99034097,30.1190912 C2.99042377,29.0190815 3.86835575,28.1273685 4.95136525,28.1272844 C6.03437475,28.1272003 6.91244097,29.0187769 6.91268939,30.1187865 C6.91145,31.2186456 6.0339266,32.1099436 4.95106534,32.1112025 L4.95106534,32.1112025 Z M18.9725616,3.02997076 C20.0559366,3.02997076 20.9341856,3.92200576 20.9341856,5.0223867 C20.9341856,6.12276763 20.0559366,7.01480263 18.9725616,7.01480263 C17.8891865,7.01480263 17.0109375,6.12276763 17.0109375,5.0223867 C17.0119295,3.92242336 17.8895977,3.03097828 18.9725616,3.02997076 L18.9725616,3.02997076 Z M18.9725616,27.1029788 C15.9721021,27.1029788 13.5397491,24.6324448 13.5397491,21.5848867 C13.5397491,18.5373286 15.9721021,16.0667946 18.9725616,16.0667946 C21.973021,16.0667946 24.4053741,18.5373286 24.4053741,21.5848867 C24.4019033,24.6309095 21.9715097,27.0992489 18.9725616,27.1025219 L18.9725616,27.1029788 Z M32.9940578,32.1112025 C31.9110483,32.1109502 31.0332506,31.2191008 31.0333334,30.1190912 C31.0334162,29.0190815 31.9113482,28.1273685 32.9943577,28.1272844 C34.0773672,28.1272003 34.9554334,29.0187769 34.9556818,30.1187865 C34.9546899,31.2187499 34.0770217,32.110195 32.9940578,32.1112025 L32.9940578,32.1112025 Z"></path>
        </g>
    </g>
</svg>