<?xml version="1.0" encoding="UTF-8"?>
<svg width="14px" height="14px" viewBox="0 0 14 14" version="1.1" xmlns="http://www.w3.org/2000/svg" xmlns:xlink="http://www.w3.org/1999/xlink">
    <title>9.icon</title>
    <g id="0.2.4" stroke="none" stroke-width="1" fill="none" fill-rule="evenodd">
        <g id="9.调度服务配置" transform="translate(-399.000000, -93.000000)" fill="#F5222D">
            <g id="Group-4" transform="translate(383.000000, 80.000000)">
                <path d="M23,13 C19.1335937,13 16,16.1335937 16,20 C16,23.8664062 19.1335937,27 23,27 C26.8664062,27 30,23.8664062 30,20 C30,16.1335937 26.8664062,13 23,13 L23,13 Z M26.2949219,22.6154297 C26.4671875,22.7849609 26.4699219,23.0611328 26.3017578,23.2347656 L26.3017578,23.2347656 C26.1322266,23.4070312 25.8560547,23.4097656 25.6824219,23.2416016 L23,20.6125 L20.3175781,23.2402344 C20.1453125,23.4097656 19.8677734,23.4070312 19.6982422,23.2333984 L19.6982422,23.2333984 C19.5287109,23.0611328 19.5314453,22.7835937 19.7050781,22.6140625 L22.3751953,20 L19.7050781,17.3845703 C19.5328125,17.2150391 19.5300781,16.9388672 19.6982422,16.7652344 L19.6982422,16.7652344 C19.8677734,16.5929688 20.1439453,16.5902344 20.3175781,16.7583984 L23,19.3875 L25.6824219,16.7597656 C25.8546875,16.5902344 26.1322266,16.5929688 26.3017578,16.7666016 L26.3017578,16.7666016 C26.4712891,16.9388672 26.4685547,17.2164062 26.2949219,17.3859375 L23.6248047,20 L26.2949219,22.6154297 L26.2949219,22.6154297 Z" id="9.icon"></path>
            </g>
        </g>
    </g>
</svg>