<?xml version="1.0" encoding="UTF-8"?>
<svg width="60px" height="60px" viewBox="0 0 60 60" version="1.1" xmlns="http://www.w3.org/2000/svg" xmlns:xlink="http://www.w3.org/1999/xlink">
    <title>04</title>
    <g id="页面-1" stroke="none" stroke-width="1" fill="none" fill-rule="evenodd">
        <g id="04" transform="translate(-758.000000, -437.000000)" fill-rule="nonzero">
            <g id="编组-9" transform="translate(313.000000, 304.000000)">
                <g id="04" transform="translate(445.000000, 133.000000)">
                    <circle id="椭圆形" fill="#3C3588" cx="30" cy="30" r="30"></circle>
                    <path d="M19.1682292,28.0298879 L40.3293403,28.0298879 C41.4126736,28.0298879 42.3515625,27.3716103 42.7126736,26.420765 C43.0737847,25.4699197 42.9293403,24.2996485 42.2071181,23.4950871 L37.6571181,18.6677185 C36.7904514,17.7900151 35.4904514,17.7900151 34.6237847,18.5945766 C33.7571181,19.399138 33.7571181,20.788835 34.5515625,21.6665384 L36.3571181,23.568229 L19.1682292,23.568229 C17.9404514,23.568229 17.0015625,24.5190744 17.0015625,25.7624875 C17.0015625,27.0059006 18.0126736,28.0298879 19.1682292,28.0298879 Z M40.8348958,31.9795531 L19.6737847,31.9795531 C18.5904514,31.9795531 17.6515625,32.6378307 17.2904514,33.588676 C16.9293403,34.5395213 17.0737847,35.7097925 17.7960069,36.5143539 L22.346007,41.3417225 C22.7793403,41.7805742 23.3571181,42 23.9348958,42 C24.4404514,42 25.0182292,41.7805742 25.4515625,41.4148644 C26.3182292,40.610303 26.3182292,39.220606 25.5237847,38.3429026 L23.7182292,36.4412119 L40.8348958,36.4412119 C42.0626736,36.4412119 43.0015625,35.4903666 43.0015625,34.2469535 C43.0015625,33.0035403 41.9904514,31.9795531 40.8348958,31.9795531 L40.8348958,31.9795531 Z" id="形状" fill="#FFFFFF"></path>
                </g>
            </g>
        </g>
    </g>
</svg>