<?xml version="1.0" encoding="UTF-8"?>
<svg width="660px" height="60px" viewBox="0 0 660 60" version="1.1" xmlns="http://www.w3.org/2000/svg" xmlns:xlink="http://www.w3.org/1999/xlink">
    <title>01</title>
    <g id="页面-1" stroke="none" stroke-width="1" fill="none" fill-rule="evenodd">
        <g id="03" transform="translate(-458.000000, -192.000000)">
            <g id="01" transform="translate(458.000000, 192.000000)">
                <g id="编组-3">
                    <circle id="椭圆形" fill="#EEF1FF" cx="30" cy="30" r="24"></circle>
                    <path d="M630,0.5 C638.1462,0.5 645.5212,3.80189997 650.85965,9.14034996 C656.1981,14.4787999 659.5,21.8537999 659.5,30 C659.5,38.1462001 656.1981,45.5212001 650.85965,50.85965 C645.5212,56.1981 638.1462,59.5 630,59.5 C623.666086,59.5 617.798342,57.5039428 612.991702,54.1062939 C607.957024,50.5474525 604.086223,45.451261 602.063212,39.5009159 L602.063212,39.5009159 L57.9367878,39.5009159 C55.9137771,45.451261 52.0429757,50.5474525 47.0082979,54.1062939 C42.2016585,57.5039428 36.3339138,59.5 30,59.5 C21.8537999,59.5 14.4787999,56.1981 9.14034996,50.85965 C3.80189997,45.5212001 0.5,38.1462001 0.5,30 C0.5,21.8537999 3.80189997,14.4787999 9.14034996,9.14034996 C14.4787999,3.80189997 21.8537999,0.5 30,0.5 C36.3341016,0.5 42.2020064,2.49617558 47.0087254,5.89400828 C52.0434771,9.45303555 55.9142684,14.5494789 57.9371281,20.500085 L57.9371281,20.500085 L602.062872,20.500085 C604.085732,14.5494789 607.956523,9.45303555 612.991275,5.89400828 C617.797994,2.49617558 623.665898,0.5 630,0.5 Z" id="形状结合" stroke="#EEF1FF" opacity="0.5"></path>
                    <circle id="椭圆形备份" fill="#EEF1FF" cx="630" cy="30" r="24"></circle>
                    <rect id="矩形" fill="#EEF1FF" x="30" y="25" width="600" height="10"></rect>
                    <circle id="椭圆形" fill="#FFFFFF" cx="630" cy="30" r="18"></circle>
                    <circle id="椭圆形" fill="#3C3588" cx="30" cy="30" r="18"></circle>
                </g>
                <polygon id="路径" fill="#FFFFFF" fill-rule="nonzero" points="36.7530589 23 39.2 25.4800831 27.2610018 37 21 31.0893661 23.4203134 28.5843436 27.2343742 32.1853135"></polygon>
            </g>
        </g>
    </g>
</svg>