<?xml version="1.0" encoding="UTF-8"?>
<svg width="24px" height="21px" viewBox="0 0 24 21" version="1.1" xmlns="http://www.w3.org/2000/svg" xmlns:xlink="http://www.w3.org/1999/xlink">
    <title>警告</title>
    <g id="页面-1" stroke="none" stroke-width="1" fill="none" fill-rule="evenodd">
        <g id="04" transform="translate(-345.000000, -602.000000)" fill="#FF8D16" fill-rule="nonzero">
            <g id="编组-9" transform="translate(313.000000, 304.000000)">
                <g id="编组-6" transform="translate(32.001563, 290.000000)">
                    <g id="警告" transform="translate(0.000000, 8.001563)">
                        <path d="M13.975,0.9 C13.975,1 14.175,1.2 14.475,1.69999999 C14.775,2.19999998 15.075,2.7 15.475,3.5 C15.875,4.29999998 16.375,5 16.875,5.89999999 C17.375,6.79999999 17.975,7.69999999 18.475,8.59999999 C18.975,9.5 19.575,10.5 20.075,11.4 C20.575,12.3 21.075,13.2 21.575,13.9 C21.975,14.7 22.375,15.3 22.775,15.9 C23.175,16.5 23.275,16.8 23.475,17 C23.675,17.4 23.875,17.8 23.875,18.2 C23.975,18.6 23.875,18.9 23.775,19.3 C23.675,19.7 23.475,19.9 23.275,20.1 C22.975,20.3 22.675,20.4 22.275,20.4 L2.075,20.4 C1.475,20.4 0.975000006,20.3 0.675000006,20.1 C0.375000006,19.9 0.175000014,19.6 0.0750000059,19.3 C-0.025000002,19 -0.025000002,18.6 0.0750000059,18.3 C0.175000014,17.9 0.274999998,17.6 0.574999998,17.2 C0.675000006,17 0.874999998,16.7 1.175,16.1 C1.475,15.6 1.87500001,14.9 2.375,14.2 C2.87499999,13.4 3.37500001,12.6 3.875,11.7 C4.37499999,10.8 4.97499999,9.79999999 5.57499999,8.89999999 C6.17499999,8 6.67499998,7 7.175,6.09999998 C7.67499999,5.19999998 8.17500001,4.39999999 8.57499999,3.69999998 C8.975,3 9.37499998,2.39999998 9.67500001,1.89999998 L10.175,1.09999999 C10.375,0.799999992 10.675,0.5 11.075,0.3 C11.475,0.100000008 11.775,0 12.175,0 C12.575,0 12.875,0.100000008 13.275,0.199999992 C13.475,0.3 13.775,0.6 13.975,0.9 L13.975,0.9 Z M13.375,5.49999998 C13.375,5.29999999 13.375,5.09999999 13.275,4.99999999 C13.175,4.8 13.075,4.69999999 12.975,4.59999999 C12.875,4.49999998 12.675,4.39999999 12.475,4.29999998 C12.275,4.19999998 12.075,4.09999999 11.875,4.09999999 C11.475,4.09999999 11.175,4.2 10.875,4.5 C10.575,4.8 10.375,5.09999999 10.375,5.49999998 L10.375,11.7 C10.375,12.1 10.575,12.4 10.875,12.7 C11.175,13 11.475,13.1 11.875,13.1 C12.275,13.1 12.575,13 12.875,12.7 C13.175,12.4 13.375,12.1 13.375,11.7 L13.375,5.49999998 Z M11.875,14.5 C11.475,14.5 11.075,14.6 10.875,14.9 C10.675,15.2 10.475,15.5 10.475,15.9 C10.475,16.3 10.575,16.7 10.875,16.9 C11.175,17.2 11.475,17.3 11.875,17.3 C12.275,17.3 12.675,17.2 12.875,16.9 C13.175,16.6 13.275,16.3 13.275,15.9 C13.275,15.5 13.175,15.1 12.875,14.9 C12.675,14.6 12.275,14.5 11.875,14.5 L11.875,14.5 Z" id="形状"></path>
                    </g>
                </g>
            </g>
        </g>
    </g>
</svg>